<svg width="188" height="36" viewBox="0 0 188 36" fill="none" xmlns="http://www.w3.org/2000/svg">
<path d="M13.1868 16.0014V36H0V29.336C0 21.9743 5.90019 16.0014 13.1868 16.0014ZM15.8241 29.3295C23.1042 29.3295 29.0109 23.3632 29.0109 15.9949H15.8241V29.3295ZM15.8241 0V13.3345H29.0109C29.0044 5.96631 23.1042 0 15.8241 0ZM0 0C0 7.36171 5.90019 13.3345 13.1868 13.3345V0H0Z" fill="url(#paint0_linear_7554_35380)"/>
<path d="M49.4778 15.5059C49.1682 16.0862 48.6782 16.5622 48.0011 16.9274C47.324 17.2925 46.46 17.4751 45.4024 17.4751H43.0811V22.7241H40.9789V9.78736H45.396C46.3761 9.78736 47.208 9.95689 47.8915 10.3025C48.575 10.6416 49.0844 11.1045 49.4197 11.6914C49.755 12.2782 49.9291 12.9237 49.9291 13.6475C49.9291 14.3061 49.7744 14.9256 49.4713 15.5124L49.4778 15.5059ZM47.1886 15.1929C47.582 14.8277 47.7754 14.3061 47.7754 13.641C47.7754 12.226 46.9823 11.5153 45.4024 11.5153H43.0811V15.7406H45.4024C46.202 15.7406 46.7953 15.5581 47.1886 15.1929Z" fill="white"/>
<path d="M55.1781 12.7412C55.6875 12.4477 56.2936 12.3043 56.99 12.3043V14.5017H56.4548C55.6294 14.5017 55.0104 14.7104 54.5848 15.1342C54.1592 15.5581 53.9464 16.2884 53.9464 17.3316V22.7307H51.8443V12.4673H53.9464V13.9605C54.2559 13.4389 54.6622 13.0346 55.1716 12.7412H55.1781Z" fill="white"/>
<path d="M60.6333 22.2351C59.8595 21.7917 59.2534 21.1723 58.8084 20.3702C58.3635 19.5682 58.1443 18.6423 58.1443 17.5859C58.1443 16.5296 58.37 15.6167 58.8278 14.8082C59.2792 13.9996 59.9047 13.3802 60.6849 12.9433C61.4716 12.5064 62.3486 12.2913 63.3158 12.2913C64.283 12.2913 65.1665 12.5064 65.9467 12.9433C66.7334 13.3802 67.3524 13.9996 67.8038 14.8082C68.2552 15.6167 68.4873 16.5427 68.4873 17.5859C68.4873 18.6292 68.2552 19.5552 67.7845 20.3637C67.3137 21.1723 66.6818 21.7917 65.8758 22.2351C65.0697 22.6785 64.1863 22.8937 63.2126 22.8937C62.2389 22.8937 61.3878 22.672 60.614 22.2351H60.6333ZM64.7538 20.6636C65.2245 20.4028 65.6114 20.0116 65.908 19.4899C66.2046 18.9683 66.3529 18.3358 66.3529 17.5925C66.3529 16.8491 66.2111 16.2166 65.9274 15.7015C65.6436 15.1864 65.2696 14.7951 64.8054 14.5343C64.3411 14.2735 63.8381 14.1431 63.2965 14.1431C62.7548 14.1431 62.2583 14.2735 61.794 14.5343C61.3362 14.7951 60.9686 15.1864 60.6978 15.7015C60.427 16.2166 60.2915 16.8491 60.2915 17.5925C60.2915 18.701 60.5688 19.5486 61.1298 20.155C61.6908 20.7549 62.3937 21.0614 63.2384 21.0614C63.7801 21.0614 64.283 20.931 64.7602 20.6702L64.7538 20.6636Z" fill="white"/>
<path d="M74.0393 12.7868C74.6519 12.4608 75.3483 12.3043 76.1221 12.3043C77.0055 12.3043 77.8116 12.526 78.5467 12.9629C79.2753 13.4063 79.8492 14.0192 80.2684 14.8147C80.6875 15.6102 80.8938 16.5231 80.8938 17.5533C80.8938 18.5836 80.6875 19.503 80.2684 20.3181C79.8492 21.1331 79.2753 21.7656 78.5467 22.2155C77.818 22.6655 77.012 22.8937 76.1221 22.8937C75.3483 22.8937 74.6583 22.7372 74.0587 22.4177C73.459 22.0982 72.9689 21.7069 72.5884 21.2375V27.608H70.4863V12.4673H72.5884V13.9736C72.9431 13.5041 73.4267 13.1063 74.0458 12.7803L74.0393 12.7868ZM78.3274 15.7145C78.0373 15.1994 77.6568 14.8082 77.1861 14.5408C76.7154 14.2735 76.2059 14.1431 75.6643 14.1431C75.1226 14.1431 74.639 14.28 74.1618 14.5539C73.6911 14.8277 73.3107 15.2255 73.0205 15.7471C72.7303 16.2688 72.5884 16.8817 72.5884 17.5925C72.5884 18.3032 72.7303 18.9161 73.0205 19.4443C73.3107 19.9725 73.6911 20.3702 74.1618 20.6441C74.6326 20.9179 75.1355 21.0549 75.6643 21.0549C76.193 21.0549 76.7089 20.9179 77.1861 20.6376C77.6568 20.3572 78.0373 19.9529 78.3274 19.4182C78.6176 18.8835 78.7595 18.2641 78.7595 17.5533C78.7595 16.8426 78.6176 16.2362 78.3274 15.7211V15.7145Z" fill="white"/>
<path d="M95.1123 9.78736V11.5218H89.6764V15.3364H93.913V17.0708H89.6764V22.7307H87.5743V9.78736H95.1123Z" fill="white"/>
<path d="M97.0791 10.7198C96.8211 10.459 96.6922 10.1395 96.6922 9.75475C96.6922 9.37004 96.8211 9.04401 97.0791 8.78319C97.337 8.52237 97.653 8.39196 98.0334 8.39196C98.4139 8.39196 98.7169 8.52237 98.9749 8.78319C99.2328 9.04401 99.3618 9.36352 99.3618 9.75475C99.3618 10.146 99.2328 10.459 98.9749 10.7198C98.7169 10.9806 98.401 11.111 98.0334 11.111C97.6659 11.111 97.337 10.9806 97.0791 10.7198ZM99.0716 12.4673V22.7307H96.9694V12.4673H99.0716Z" fill="white"/>
<path d="M105.062 12.7412C105.571 12.4477 106.178 12.3043 106.874 12.3043V14.5017H106.339C105.513 14.5017 104.894 14.7104 104.469 15.1342C104.043 15.5581 103.83 16.2884 103.83 17.3316V22.7307H101.728V12.4673H103.83V13.9605C104.14 13.4389 104.546 13.0346 105.056 12.7412H105.062Z" fill="white"/>
<path d="M123.15 12.8064C123.781 13.1389 124.278 13.641 124.639 14.2996C125 14.9582 125.181 15.7537 125.181 16.6861V22.7372H123.098V16.9991C123.098 16.0797 122.872 15.3755 122.414 14.8864C121.963 14.3974 121.338 14.1496 120.557 14.1496C119.777 14.1496 119.152 14.3974 118.687 14.8864C118.229 15.3755 117.997 16.0797 117.997 16.9991V22.7372H115.915V16.9991C115.915 16.0797 115.689 15.3755 115.231 14.8864C114.78 14.3974 114.154 14.1496 113.374 14.1496C112.594 14.1496 111.968 14.3974 111.504 14.8864C111.046 15.3755 110.814 16.0797 110.814 16.9991V22.7372H108.712V12.4738H110.814V13.6475C111.156 13.2237 111.594 12.8977 112.123 12.6629C112.652 12.4282 113.213 12.3108 113.819 12.3108C114.631 12.3108 115.354 12.4869 115.992 12.8325C116.63 13.178 117.12 13.6801 117.469 14.3387C117.778 13.7193 118.255 13.2237 118.907 12.8585C119.558 12.4934 120.254 12.3108 121.009 12.3108C121.808 12.3108 122.524 12.4803 123.156 12.8129L123.15 12.8064Z" fill="white"/>
<path d="M145.938 9.78736V22.7307H143.836V13.8692L139.934 22.7307H138.477L134.557 13.8692V22.7307H132.454V9.78736H134.718L139.212 19.9399L143.687 9.78736H145.938Z" fill="white"/>
<path d="M148.543 14.8147C148.968 14.0192 149.542 13.3997 150.271 12.9629C151 12.526 151.806 12.3043 152.696 12.3043C153.495 12.3043 154.192 12.4608 154.785 12.7803C155.378 13.0998 155.855 13.491 156.21 13.9605V12.4673H158.325V22.7307H156.21V21.2049C155.855 21.6874 155.372 22.0917 154.753 22.4177C154.134 22.7437 153.437 22.9002 152.65 22.9002C151.78 22.9002 150.98 22.672 150.258 22.2221C149.536 21.7721 148.962 21.1331 148.536 20.3246C148.111 19.516 147.898 18.5901 147.898 17.5599C147.898 16.5296 148.111 15.6167 148.536 14.8212L148.543 14.8147ZM155.784 15.7471C155.494 15.2255 155.12 14.8277 154.649 14.5539C154.179 14.28 153.682 14.1431 153.141 14.1431C152.599 14.1431 152.096 14.2735 151.632 14.5408C151.167 14.8082 150.787 15.1994 150.497 15.7145C150.207 16.2297 150.065 16.8426 150.065 17.5468C150.065 18.251 150.207 18.877 150.497 19.4117C150.787 19.9464 151.167 20.3507 151.638 20.631C152.109 20.9114 152.612 21.0484 153.141 21.0484C153.669 21.0484 154.185 20.9114 154.649 20.6376C155.114 20.3637 155.494 19.9659 155.784 19.4378C156.075 18.9096 156.216 18.2902 156.216 17.5859C156.216 16.8817 156.075 16.2623 155.784 15.7406V15.7471Z" fill="white"/>
<path d="M163.451 14.2018V19.8812C163.451 20.2659 163.542 20.5398 163.716 20.7093C163.89 20.8788 164.199 20.9636 164.625 20.9636H165.915V22.7307H164.257C163.309 22.7307 162.587 22.509 162.084 22.059C161.581 21.6091 161.33 20.8853 161.33 19.8812V14.2018H160.13V12.4673H161.33V9.91777H163.445V12.4673H165.915V14.2018H163.445H163.451Z" fill="white"/>
<path d="M167.701 14.8082C168.126 14.0062 168.713 13.3932 169.461 12.9563C170.209 12.5195 171.067 12.3043 172.04 12.3043C173.266 12.3043 174.284 12.5977 175.091 13.1911C175.897 13.7845 176.438 14.6256 176.722 15.7145H174.459C174.272 15.2059 173.981 14.8082 173.575 14.5213C173.169 14.2344 172.66 14.0909 172.047 14.0909C171.189 14.0909 170.506 14.3974 169.996 15.0103C169.487 15.6233 169.229 16.484 169.229 17.5925C169.229 18.701 169.487 19.5617 169.996 20.1811C170.506 20.8006 171.189 21.1136 172.047 21.1136C173.259 21.1136 174.065 20.5724 174.459 19.4899H176.722C176.425 20.5332 175.877 21.3613 175.065 21.9743C174.252 22.5872 173.246 22.8937 172.047 22.8937C171.08 22.8937 170.216 22.672 169.468 22.2351C168.72 21.7917 168.133 21.1723 167.707 20.3702C167.282 19.5682 167.069 18.6423 167.069 17.5859C167.069 16.5296 167.282 15.6037 167.707 14.8017L167.701 14.8082Z" fill="white"/>
<path d="M186.04 12.8064C186.646 13.1389 187.129 13.641 187.478 14.2996C187.826 14.9582 188 15.7537 188 16.6861V22.7372H185.917V16.9991C185.917 16.0797 185.692 15.3755 185.234 14.8864C184.782 14.3974 184.157 14.1496 183.377 14.1496C182.596 14.1496 181.971 14.3974 181.507 14.8864C181.049 15.3755 180.817 16.0797 180.817 16.9991V22.7372H178.714V8.94621H180.817V13.6606C181.171 13.2237 181.623 12.8911 182.171 12.6564C182.719 12.4217 183.319 12.3043 183.963 12.3043C184.737 12.3043 185.427 12.4738 186.033 12.8064H186.04Z" fill="white"/>
<defs>
<linearGradient id="paint0_linear_7554_35380" x1="93.9791" y1="36" x2="93.9791" y2="0" gradientUnits="userSpaceOnUse">
<stop stop-color="#9061F9"/>
<stop offset="1" stop-color="#E74694"/>
</linearGradient>
</defs>
</svg>
