<svg width="46" height="49" viewBox="0 0 46 49" fill="none" xmlns="http://www.w3.org/2000/svg">
<rect y="0.25" width="46" height="48" rx="5" fill="white"/>
<g clip-path="url(#clip0_7928_155)">
<path d="M16.3827 21.5295C15.8662 22.1785 15.4419 22.9081 15.1328 23.6934C15.0253 23.9622 14.9331 24.2367 14.8563 24.519C14.8563 24.519 14.8506 24.5324 14.8506 24.5401C14.7776 24.6015 14.6931 24.6764 14.601 24.7686C14.5875 24.7839 14.5722 24.7993 14.5549 24.8147C14.4608 24.9126 14.3571 25.0278 14.2534 25.1583C13.9635 25.5212 13.6582 26.0108 13.447 26.6367C13.4451 26.6444 13.4413 26.6521 13.4374 26.6617C13.2608 27.1878 13.1514 27.8099 13.1686 28.5318L13.1533 28.5279L12.0378 28.2092L11.5194 28.9542L10.7206 28.1478L9.81632 29.4054C9.66848 28.5414 9.4688 25.3983 13.6237 22.8543C13.735 22.7852 13.8502 22.718 13.9693 22.6489C13.9904 22.6374 14.0115 22.6239 14.0346 22.6124C14.1286 22.5587 14.2246 22.5068 14.3245 22.455C14.5261 22.3455 14.7373 22.2399 14.9562 22.1343C15.3939 21.9251 15.8682 21.7235 16.3827 21.5295Z" fill="url(#paint0_radial_7928_155)"/>
<path d="M14.8505 24.541C14.7987 24.7273 14.7526 24.9154 14.7142 25.1055C14.7104 25.1228 14.7084 25.1401 14.7046 25.1593C14.6451 25.4607 14.6028 25.766 14.5779 26.0789C14.576 26.1001 14.574 26.1193 14.574 26.1385L13.4681 26.5877C13.4681 26.5877 13.4604 26.6031 13.447 26.6357C13.6582 26.0098 13.9635 25.5202 14.2534 25.1573C14.3571 25.0268 14.4608 24.9116 14.5548 24.8137C14.5721 24.7983 14.5875 24.7829 14.6009 24.7695C14.6931 24.6754 14.7776 24.6005 14.8505 24.541Z" fill="#777136"/>
<path d="M18.1164 20.2368C18.0876 20.2503 17.9589 20.3059 17.7727 20.4173C17.6172 20.5114 17.4175 20.6458 17.2025 20.8243C16.997 20.9952 16.7743 21.2064 16.5554 21.4656C16.229 21.8554 15.9103 22.3507 15.6703 22.9747C15.6703 22.9747 15.6697 22.976 15.6684 22.9786C15.5666 23.2474 15.4764 23.5431 15.4092 23.8637C15.2978 24.3879 15.2076 24.8909 15.1346 25.3613C15.1001 25.5802 15.0713 25.7933 15.0444 25.9987C15.0271 26.1447 15.0098 26.2867 14.9945 26.425V26.4307C14.8543 27.7517 14.8812 28.704 15.006 29.0535C15.0156 29.0861 15.0271 29.113 15.0405 29.1341C15.0501 29.1514 15.054 29.1667 15.0501 29.1783C15.0444 29.2109 14.9945 29.2243 14.9138 29.2243C14.3397 29.2282 12.1605 28.5427 12.0242 28.5005H12.0185L11.5711 29.5507L10.734 28.7847L10.6015 28.6637L10.494 28.5658L9.54549 30.2189L8.39925 31.1923C8.39925 31.1923 7.57749 28.3642 8.55093 26.4C8.62581 26.2503 8.70069 26.1063 8.77749 25.9642C9.72021 24.24 10.9433 23.0611 12.894 21.8746C13.0572 21.7747 13.2281 21.6807 13.4028 21.5923C13.4028 21.6058 13.4066 21.6192 13.4085 21.6327C13.4239 21.7498 13.4412 21.8669 13.4623 21.9859C11.6191 22.8135 10.2693 23.9271 9.42837 25.3171C8.18613 27.3696 8.41269 29.5239 8.61237 30.5031C8.75061 30.4051 8.89845 30.3111 9.05205 30.2266C9.14229 30.1747 9.23445 30.1287 9.32661 30.0845L9.81621 29.4048L10.7205 28.1472L11.5193 28.9536L12.0377 28.2087L13.1532 28.5274L13.1685 28.5312C13.1513 27.8093 13.2607 27.1872 13.4373 26.6611C13.4412 26.6515 13.445 26.6439 13.4469 26.6362C13.4604 26.6035 13.4681 26.5882 13.4681 26.5882L14.574 26.1389C14.574 26.1197 14.5759 26.1005 14.5778 26.0813C14.6028 25.7664 14.645 25.4611 14.7045 25.1597C14.7084 25.1405 14.7103 25.1232 14.7141 25.1059C14.7525 24.9159 14.7986 24.7277 14.8505 24.5415C14.8505 24.5319 14.8524 24.528 14.8562 24.5203C14.933 24.2362 15.0252 23.9616 15.1327 23.6928C15.4418 22.9075 15.8661 22.1779 16.3826 21.529H16.3845C16.565 21.3005 16.7589 21.0816 16.9625 20.8743H16.9644C16.9855 20.8512 17.0085 20.8282 17.0316 20.8051C17.166 20.6707 17.3042 20.5421 17.4463 20.4192H17.4482C17.4885 20.3827 17.5269 20.3482 17.5673 20.3155C17.6786 20.2983 17.7727 20.2829 17.8514 20.2714H17.8533C17.9993 20.2503 18.0914 20.2387 18.1164 20.2368Z" fill="url(#paint1_radial_7928_155)"/>
<path d="M16.9625 20.8748C16.759 21.0821 16.5651 21.301 16.3846 21.5295H16.3827C15.8681 21.7234 15.3939 21.925 14.9561 22.1343C14.7372 22.2399 14.526 22.3455 14.3244 22.4549C14.2246 22.5068 14.1286 22.5586 14.0345 22.6124C14.0115 22.6239 13.9904 22.6373 13.9692 22.6488C13.8502 22.718 13.735 22.7852 13.6236 22.8543C9.46875 25.3983 9.66843 28.5413 9.81627 29.4053L9.32667 30.085C9.23451 30.1292 9.14235 30.1752 9.05211 30.2271C8.89851 30.3116 8.75067 30.4056 8.61243 30.5036C8.41275 29.5244 8.18619 27.3701 9.42843 25.3176C10.2694 23.9276 11.6192 22.814 13.4624 21.9864C13.5872 21.9288 13.7139 21.8751 13.8425 21.8232C13.8636 21.8117 13.8848 21.804 13.9078 21.7964C14 21.756 14.094 21.7196 14.19 21.685C14.4262 21.5928 14.67 21.5045 14.9216 21.4239C15.5571 21.2127 16.2368 21.0303 16.9625 20.8748Z" fill="url(#paint2_radial_7928_155)"/>
<path d="M13.4086 21.6326C13.424 21.7497 13.4413 21.8668 13.4624 21.9858C11.6192 22.8134 10.2694 23.927 9.42846 25.317C8.18622 27.3695 8.41278 29.5238 8.61246 30.503C8.7507 30.4051 8.89854 30.311 9.05214 30.2265C9.14238 30.1747 9.23454 30.1286 9.3267 30.0844L9.8163 29.4047C9.84126 29.5526 9.8643 29.6332 9.8643 29.6332L9.54558 30.2188L8.41662 30.8274C8.41662 30.8274 7.7811 28.6252 8.30334 27.1545C8.43006 26.7974 8.57982 26.3923 8.77758 25.9641C9.39774 24.6278 10.496 23.0476 12.8941 21.8745C13.0707 21.7881 13.2416 21.7074 13.4086 21.6326Z" fill="url(#paint3_radial_7928_155)"/>
<path d="M17.7882 20.4048L17.7728 20.4183L17.3773 20.7908L16.7188 21.4071C16.6631 21.4263 16.6093 21.4474 16.5556 21.4666C16.496 21.4877 16.4404 21.5088 16.3847 21.53C16.5652 21.3015 16.7591 21.0826 16.9626 20.8752H16.9645C16.9856 20.8522 17.0087 20.8292 17.0317 20.8061C17.1661 20.6717 17.3044 20.5431 17.4464 20.4202H17.4484C17.5136 20.4144 17.5693 20.4106 17.6154 20.4087C17.7306 20.4029 17.7882 20.4048 17.7882 20.4048Z" fill="url(#paint4_radial_7928_155)"/>
<path d="M11.5903 36.8913C11.5903 36.8913 13.5737 39.0686 15.7587 39.2664C17.9436 39.4641 19.687 39.0552 21.8854 37.9281C24.0838 36.8011 26.0153 34.3262 26.0153 34.3262C26.0153 34.3262 24.1625 35.6875 21.5033 34.7448C18.846 33.802 17.0316 32.7115 16.8166 32.3064C16.6015 31.8993 15.7817 35.2152 15.7817 35.2152L14.6508 35.0462L14.9273 36.4785L13.0227 36.4248L11.5923 36.8932L11.5903 36.8913Z" fill="url(#paint5_radial_7928_155)"/>
<path d="M15.1731 33.4156C15.1731 33.4156 14.5991 31.3382 13.9712 30.8486C13.3434 30.359 13.0458 30.2073 13.0458 30.2073L15.3344 30.0825L16.3693 31.6934L15.1751 33.4176L15.1731 33.4156Z" fill="#FFF6F6"/>
<path d="M13.1263 36.6145L15.3112 36.5108L14.7621 35.2474L15.8872 35.4029L16.9221 32.4941L16.3807 31.5322L14.8696 33.7191L13.1263 36.6145Z" fill="url(#paint6_linear_7928_155)"/>
<path d="M9.54559 30.2195L10.7744 28.4109L11.5654 29.5379L12.0205 28.4992L15.0406 29.1347L15.5782 30.1005L12.9229 30.2464L9.54559 30.2195Z" fill="url(#paint7_linear_7928_155)"/>
<path d="M12.4306 36.2591C14.2236 35.2549 15.0067 33.2439 14.1798 31.7673C13.3529 30.2907 11.229 29.9077 9.43598 30.9118C7.64297 31.916 6.85981 33.927 7.68674 35.4036C8.51368 36.8802 10.6376 37.2632 12.4306 36.2591Z" fill="url(#paint8_radial_7928_155)"/>
<path d="M13.7447 36.5628C13.7447 36.5628 17.4099 40.5929 24.3411 35.0172L25.7543 34.6294C25.7543 34.6294 24.921 36.1424 21.9431 38.0336C18.9671 39.9248 16.5671 39.512 15.0426 39.1894C13.5162 38.8668 11.9706 37.1734 11.9706 37.1734L13.0803 36.5302L13.7466 36.5648L13.7447 36.5628Z" fill="url(#paint9_radial_7928_155)"/>
<path d="M16.8147 32.3017L16.8224 32.3075C16.8224 32.3075 16.8358 32.319 16.8454 32.3248C17.0547 32.4956 18.2931 33.4883 19.3837 34.216L19.3952 34.2236C19.8886 34.552 20.3494 34.8246 20.6739 34.9436C20.6739 34.9436 19.6986 35.4236 18.2221 35.0723C17.8189 34.9782 17.3811 34.8208 16.9165 34.575C16.7187 34.4732 16.5171 34.3523 16.3098 34.214L16.8166 32.2998L16.8147 32.3017Z" fill="#777136"/>
<path d="M15.0618 29.0715C15.0656 29.1444 15.0675 29.1847 15.0675 29.1847L15.0503 29.179L14.8851 29.131L13.1706 28.6164C13.1706 28.5895 13.1687 28.5607 13.1687 28.5358V28.5319C13.1514 27.81 13.2608 27.1879 13.4375 26.6619C13.4413 26.6523 13.4451 26.6446 13.4471 26.6369C13.4605 26.6043 13.4682 26.5889 13.4682 26.5889L14.5741 26.1396C14.5741 26.1204 14.576 26.1012 14.5779 26.082C14.6029 25.7671 14.6451 25.4619 14.7047 25.1604C14.7085 25.1412 14.7104 25.1239 14.7143 25.1067C14.7527 24.9166 14.7987 24.7284 14.8506 24.5422C14.8506 24.5422 14.8563 24.5345 14.8602 24.5326C14.9619 24.4462 15.0387 24.3905 15.0791 24.3636C15.0887 24.3559 15.0944 24.3521 15.1002 24.3483C15.1079 24.3425 15.1117 24.3406 15.1117 24.3406C15.0733 24.5249 15.0483 24.7745 15.0291 25.0625V25.0663C15.0099 25.3524 15.0003 25.6769 14.9984 26.0167C14.9946 26.1511 14.9946 26.2875 14.9946 26.4257V26.4315C14.9946 27.5527 15.0445 28.7124 15.0618 29.0715Z" fill="#777136"/>
<path d="M18.4679 20.5865L18.4256 20.3119L18.3776 19.9951H18.3757L18.3527 19.8396C18.3258 19.8434 18.2989 19.8473 18.2739 19.853C18.2298 19.8588 18.1875 19.8646 18.1453 19.8722C17.9456 20.0105 17.7536 20.1602 17.5674 20.3158C17.5271 20.3484 17.4887 20.383 17.4483 20.4194H17.4464C17.3043 20.5423 17.1661 20.671 17.0317 20.8054C17.0087 20.8284 16.9856 20.8514 16.9645 20.8745C17.0432 20.8553 17.1219 20.8399 17.2026 20.8246C17.2602 20.8111 17.3178 20.7996 17.3773 20.79C17.5616 20.7516 17.7479 20.717 17.9379 20.6844H17.9399C18.1069 20.6556 18.2739 20.6287 18.4467 20.6018C18.4544 20.5999 18.4621 20.5999 18.4698 20.598V20.5865H18.4679Z" fill="#777136"/>
<path d="M10.736 36.8007C10.713 36.8046 10.69 36.8065 10.6669 36.8065C9.44197 36.8852 8.29957 36.3745 7.73893 35.3722C7.17253 34.3604 7.34533 33.1047 8.07301 32.0967C8.07301 32.0967 8.07365 32.0954 8.07493 32.0929C8.09413 32.066 8.11333 32.0391 8.13445 32.0142C8.15557 31.9854 8.17669 31.9585 8.20165 31.9316C8.51845 31.5284 8.93509 31.1732 9.42661 30.8967C9.97573 30.5895 10.5575 30.4186 11.122 30.3726C11.1623 30.3668 11.2026 30.3649 11.2429 30.363C11.2679 30.361 11.2909 30.361 11.3159 30.3591C12.4948 30.3207 13.5815 30.8295 14.1248 31.7972C14.672 32.7764 14.528 33.986 13.8618 34.9767C13.8234 35.0324 13.785 35.0881 13.7428 35.1418C13.4125 35.5854 12.9709 35.977 12.4391 36.2746C11.89 36.5818 11.3044 36.7546 10.736 36.8007ZM26.5089 34.4257L26.4186 34.3489L26.1306 34.105L25.9444 33.9476C25.8388 34.0724 25.7332 34.1953 25.6276 34.3143C25.5105 34.4487 25.3933 34.5793 25.2762 34.7079C25.2551 34.731 25.234 34.754 25.2129 34.777C25.161 34.8327 25.1111 34.8884 25.0612 34.9402C24.5658 35.4702 24.0724 35.9482 23.5789 36.3764C23.3869 36.5454 23.193 36.7066 23.001 36.8602C22.9185 36.9255 22.8359 36.9908 22.7533 37.0522C22.7361 37.0676 22.7169 37.081 22.6996 37.0926C22.5882 37.177 22.4769 37.2596 22.3674 37.3383C20.6221 38.5786 18.8922 39.1988 17.1988 39.1892C14.7988 39.1758 13.0784 37.8586 12.3488 37.1751C12.5044 37.1079 12.6618 37.0311 12.8154 36.9447C12.9152 36.889 13.0112 36.8314 13.1053 36.77L13.8983 36.7105L15.4516 36.5953L15.1808 35.4932L16.089 35.4394L16.4058 34.3066L16.4116 34.2836L16.8666 32.6535V32.6497L16.8839 32.5921L16.9146 32.4807L16.9242 32.4423L16.9357 32.402L17.0221 32.0929L16.6516 31.9911L16.6477 32.0065L16.5786 32.2522L15.7933 35.0727L15.1136 35.113H15.1117L14.7008 35.138L14.9716 36.2458L14.8794 36.2516L13.6698 36.3399C14.0768 35.9866 14.4128 35.5758 14.6644 35.1361C14.6816 35.1092 14.697 35.0823 14.7104 35.0535C14.9946 34.537 15.1655 33.9822 15.2135 33.4254L15.2212 33.2122V33.2084L15.225 33.0625C15.2212 32.4961 15.081 31.9354 14.7949 31.4228C14.5108 30.9159 14.1114 30.507 13.6372 30.2074C12.6292 29.5642 11.2832 29.4068 9.99109 29.8177L10.7341 28.7847L10.7668 28.7386L11.5712 29.5508L12.1972 28.6522L14.9831 29.4471H14.985L15.2576 29.5258H15.2596L15.2749 29.5297L15.3805 29.161L15.0618 29.0708L15.0061 29.0535L14.8506 29.0094L13.4471 28.61L13.4336 28.6062L13.1687 28.5313L13.1533 28.5274L12.0378 28.2087L11.5194 28.9537L10.7207 28.1473L9.81637 29.4049L9.32677 30.0846C9.23461 30.1287 9.14245 30.1748 9.05221 30.2266C8.89861 30.3111 8.75077 30.4052 8.61253 30.5031C8.41285 29.5239 8.18629 27.3697 9.42853 25.3172C10.2695 23.9271 11.6192 22.8135 13.4624 21.986C13.5872 21.9284 13.714 21.8746 13.8426 21.8228C13.8637 21.8113 13.8848 21.8036 13.9079 21.7959C14 21.7556 14.0941 21.7191 14.1901 21.6846C14.4263 21.5924 14.6701 21.5041 14.9216 21.4234C15.5572 21.2122 16.2368 21.0298 16.9626 20.8743H16.9645C16.9857 20.8513 17.0087 20.8282 17.0317 20.8052C17.1661 20.6708 17.3044 20.5422 17.4464 20.4193H17.4484C17.4887 20.3828 17.5271 20.3482 17.5674 20.3156C17.7536 20.1601 17.9457 20.0103 18.1453 19.8721C17.8305 19.922 17.5213 19.9777 17.2199 20.0372C16.4039 20.1966 15.6397 20.3886 14.9274 20.6151C14.6413 20.7015 14.3648 20.7975 14.096 20.8973C14.0116 20.9281 13.9271 20.9607 13.8426 20.9953C13.8157 21.0049 13.7869 21.0145 13.76 21.0279C13.6218 21.0798 13.4874 21.1354 13.3549 21.195C11.2564 22.0974 9.72037 23.3473 8.76613 24.9294C7.18213 27.5598 7.72933 30.2516 7.95013 31.058C6.64645 32.3636 6.23557 34.2567 7.06885 35.7486C7.90405 37.2385 9.73381 37.8778 11.529 37.4497C12.1031 38.0602 14.1114 39.9342 17.1815 39.9553C19.1073 39.9706 21.0541 39.2564 22.9991 37.826C23.1143 37.7415 23.2314 37.6532 23.3466 37.563C23.3677 37.5476 23.3889 37.5303 23.41 37.513C23.4829 37.4554 23.5578 37.3959 23.6308 37.3364C23.8477 37.1598 24.0647 36.9735 24.2817 36.7796C24.8327 36.2862 25.3818 35.737 25.929 35.1303C26.1287 34.9095 26.3303 34.6791 26.53 34.443L26.5089 34.4257Z" fill="#777136"/>
<path d="M19.3836 34.2179L18.222 35.0743C18.222 35.0743 17.2927 34.8995 16.4057 34.3082L16.9049 32.6282L19.3836 34.2179Z" fill="url(#paint10_radial_7928_155)"/>
<path d="M14.8659 28.9912L14.8429 28.9854L13.447 28.611L13.4336 28.6072L13.1686 28.5361L13.1533 28.5323V28.5285C13.1283 27.5339 13.3529 26.8715 13.4374 26.6622C13.4413 26.6526 13.4451 26.6449 13.447 26.6373C13.4605 26.6046 13.4681 26.5893 13.4681 26.5893L14.5741 26.14L14.5971 26.1304L14.8064 26.0459V26.0881L14.8659 28.9912Z" fill="url(#paint11_radial_7928_155)"/>
<path d="M37.6006 31.1926C37.6006 31.1926 38.4205 28.3644 37.447 26.3983C36.4736 24.4322 35.2141 23.1593 33.104 21.8748C30.9958 20.5903 27.8758 20.2351 27.8758 20.2351C27.8758 20.2351 30.0051 21.1049 30.5888 23.8639C31.1744 26.623 31.1917 28.7388 30.9574 29.1343C30.7232 29.5298 33.9776 28.4969 33.9776 28.4969L34.4249 29.549L35.5021 28.566L36.4505 30.2191L37.5968 31.1926H37.6006Z" fill="url(#paint12_radial_7928_155)"/>
<path d="M36.1356 29.6329C36.1356 29.6329 37.6563 24.4029 29.2812 21.4057L28.2118 20.4035C28.2118 20.4035 29.9379 20.3248 33.1059 21.8742C36.2739 23.4237 37.1744 25.6854 37.6966 27.1542C38.2188 28.623 37.5833 30.8272 37.5833 30.8272L36.4544 30.2185L36.1356 29.6329Z" fill="url(#paint13_radial_7928_155)"/>
<path d="M34.4114 36.8916C34.4114 36.8916 32.4281 39.0688 30.2431 39.2666C28.0581 39.4644 26.3148 39.0554 24.1164 37.9284C21.918 36.8013 19.9865 34.3264 19.9865 34.3264C19.9865 34.3264 21.8393 35.6877 24.4985 34.745C27.1557 33.8023 28.9701 32.7117 29.1852 32.3066C29.4002 31.8996 30.2201 35.2154 30.2201 35.2154L31.3509 35.0464L31.0745 36.4788L32.9791 36.425L34.4095 36.8935L34.4114 36.8916Z" fill="url(#paint14_radial_7928_155)"/>
<path d="M30.7884 33.4156C30.7884 33.4156 31.3624 31.3382 31.9903 30.8486C32.6181 30.359 32.9157 30.2073 32.9157 30.2073L30.6271 30.0825L29.5922 31.6934L30.7864 33.4176L30.7884 33.4156Z" fill="#FFF6F6"/>
<path d="M32.8735 36.6145L30.6886 36.5108L31.2377 35.2474L30.1126 35.4029L29.0777 32.4941L29.6191 31.5322L31.1321 33.7191L32.8735 36.6145Z" fill="url(#paint15_linear_7928_155)"/>
<path d="M36.4543 30.2195L35.2255 28.4109L34.4364 29.5379L33.9813 28.4992L30.9593 29.1347L30.4217 30.1005L33.077 30.2464L36.4543 30.2195Z" fill="url(#paint16_linear_7928_155)"/>
<path d="M38.3155 35.4048C39.1424 33.9282 38.3592 31.9172 36.5662 30.9131C34.7732 29.9089 32.6494 30.2919 31.8224 31.7685C30.9955 33.2451 31.7787 35.2561 33.5717 36.2603C35.3647 37.2644 37.4885 36.8814 38.3155 35.4048Z" fill="url(#paint17_radial_7928_155)"/>
<path d="M32.2552 36.5631C32.2552 36.5631 28.59 40.5932 21.6588 35.0175L20.2456 34.6296C20.2456 34.6296 21.0789 36.1426 24.0568 38.0338C27.0328 39.925 29.4328 39.5122 30.9573 39.1896C32.4837 38.8671 34.0293 37.1736 34.0293 37.1736L32.9196 36.5304L32.2533 36.565L32.2552 36.5631Z" fill="url(#paint18_radial_7928_155)"/>
<path d="M29.1852 32.3029L29.1775 32.3087C29.1775 32.3087 29.1641 32.3202 29.1545 32.326C28.9452 32.4969 27.7068 33.4895 26.6162 34.2172L26.6047 34.2249C26.1113 34.5532 25.6505 34.8258 25.326 34.9449C25.326 34.9449 26.3013 35.4249 27.7778 35.0735C28.181 34.9794 28.6188 34.822 29.0834 34.5762C29.2812 34.4745 29.4828 34.3535 29.6902 34.2153L29.1833 32.301L29.1852 32.3029Z" fill="#335681"/>
<path d="M30.8882 24.3398C30.8882 24.3398 32.9388 25.632 32.8274 28.6137L30.9305 29.1821C30.9305 29.1821 31.1206 25.5033 30.8863 24.3379L30.8882 24.3398Z" fill="#335681"/>
<path d="M30.7865 33.4251C30.8767 34.4888 31.422 35.5506 32.3301 36.3397L31.0303 36.2456L31.301 35.1359L30.2085 35.0725L29.3484 31.9909L28.9778 32.0946L29.9109 35.4411L30.8191 35.4949L30.5484 36.5989L32.8946 36.7717C32.9887 36.8331 33.0847 36.8907 33.1865 36.9483C33.3381 37.0328 33.4956 37.1115 33.6511 37.1787C32.9215 37.8623 31.2012 39.1794 28.8031 39.1928C25.9538 39.2101 23.0105 37.4456 20.0556 33.9512L19.47 34.4466C22.5823 38.1272 25.7273 39.9839 28.8204 39.9608C31.8885 39.9397 33.8988 38.0639 34.4709 37.4552C36.2661 37.8834 38.0959 37.2459 38.9311 35.7541C39.7663 34.2623 39.3554 32.3691 38.0498 31.0635C38.2706 30.2571 38.8197 27.5634 37.2357 24.9349C35.6402 22.2872 32.4146 20.5727 27.6492 19.845L27.5321 20.6034C32.0556 21.2965 35.0988 22.8843 36.5714 25.3227C37.8137 27.3752 37.589 29.5295 37.3874 30.5087C37.2492 30.4107 37.1013 30.3167 36.9477 30.2322C36.8575 30.1823 36.7653 30.1343 36.6732 30.092L35.2812 28.1547L34.4825 28.9611L33.9621 28.2143L30.6213 29.1666L30.7269 29.5352L33.8047 28.6578L34.4306 29.5563L35.2351 28.7461L36.0108 29.8251C34.1119 29.2223 32.0978 29.8424 31.2089 31.4283C30.9209 31.941 30.7826 32.5016 30.7769 33.068L30.7884 33.4309L30.7865 33.4251ZM36.5733 30.8965C38.334 31.8834 39.0905 33.8898 38.261 35.3739C37.4297 36.8581 35.3215 37.2613 33.5609 36.2763C31.8021 35.2914 31.0457 33.2831 31.877 31.7989C32.7065 30.3167 34.8146 29.9115 36.5733 30.8965Z" fill="#1C4372"/>
<path d="M26.6162 34.2192L27.7778 35.0755C27.7778 35.0755 28.7071 34.9008 29.5942 34.3094L29.095 32.6294L26.6162 34.2192Z" fill="#1C4372"/>
<path d="M31.1935 26.0452L32.5298 26.5885C32.5298 26.5885 32.8774 27.3085 32.8447 28.5316L31.1321 28.9904L31.1935 26.0452Z" fill="#1C4372"/>
<path d="M26.3033 11.9292C26.3033 11.9292 29.1718 12.5954 30.4121 14.406C31.6525 16.2166 32.1478 17.9369 32.2381 20.406C32.3283 22.8751 31.1129 25.7686 31.1129 25.7686C31.1129 25.7686 31.3952 23.4857 29.2736 21.6271C27.152 19.7686 25.3145 18.7183 24.8557 18.7298C24.3968 18.7414 26.887 16.4047 26.887 16.4047L26.1881 15.5004L27.5725 15.0415L26.5952 13.4057L26.3053 11.9292H26.3033Z" fill="url(#paint19_radial_7928_155)"/>
<path d="M26.9485 13.9711C26.9485 13.9711 32.2554 15.1999 30.777 23.9704L31.1284 25.3931C31.1284 25.3931 32.0404 23.9263 32.2362 20.405C32.432 16.8837 30.8999 14.9925 29.8727 13.8194C28.8455 12.6463 26.6125 12.124 26.6125 12.124L26.5933 13.4066L26.9485 13.9711Z" fill="url(#paint20_radial_7928_155)"/>
<path d="M21.2441 18.7298H21.2134C21.1693 18.7298 21.1136 18.7394 21.0464 18.7567H21.0445C20.8352 18.8162 20.5184 18.9602 20.1209 19.1887C20.1171 19.1906 20.1133 19.1926 20.1075 19.1945C19.6429 19.4594 19.0669 19.8358 18.4256 20.3119C18.2681 20.429 18.1049 20.5538 17.9398 20.6844H17.9379C17.5731 20.9705 17.1929 21.2854 16.8032 21.6271C16.304 22.0649 15.9373 22.5257 15.6704 22.975C15.6704 22.975 15.6697 22.9762 15.6685 22.9788C15.3785 23.4646 15.2038 23.935 15.1001 24.3478C15.0464 24.5609 15.0118 24.7586 14.9888 24.9353C14.9235 25.4422 14.9638 25.7686 14.9638 25.7686C14.9638 25.7686 14.9024 25.6207 14.8064 25.3634C14.8064 25.3615 14.8045 25.3577 14.8025 25.3558C14.7757 25.2809 14.7469 25.1964 14.7142 25.1062C14.7526 24.9161 14.7987 24.7279 14.8505 24.5417C14.8505 24.5321 14.8525 24.5282 14.8563 24.5206C14.9331 24.2364 15.0253 23.9618 15.1328 23.693C15.4419 22.9078 15.8662 22.1782 16.3827 21.5292H16.3846C16.5651 21.3007 16.759 21.0818 16.9625 20.8745H16.9645C16.9856 20.8514 17.0086 20.8284 17.0317 20.8054C17.1661 20.671 17.3043 20.5423 17.4464 20.4194H17.4483C17.4886 20.383 17.527 20.3484 17.5673 20.3158C17.7536 20.1602 17.9456 20.0105 18.1453 19.8722C17.8304 19.9222 17.5213 19.9778 17.2198 20.0374C16.4038 20.1967 15.6397 20.3887 14.9273 20.6153C14.6413 20.7017 14.3648 20.7977 14.096 20.8975C14.0115 20.9282 13.927 20.9609 13.8425 20.9954C13.8329 20.7958 13.831 20.5999 13.8387 20.4041C13.9289 17.9369 14.4262 16.2146 15.6646 14.406C16.2464 13.5574 17.1833 12.9602 18.0185 12.5647C18.0377 12.5551 18.0569 12.5474 18.0742 12.5398C18.0819 12.5359 18.0877 12.5321 18.0953 12.5302C19.0073 12.1078 19.7734 11.9292 19.7734 11.9292L19.4835 13.4057L19.3702 13.5938L18.5043 15.0415L18.7213 15.1126L19.8022 15.4716L19.8886 15.5004L19.8502 15.5503L19.6045 15.8671H19.6025L19.1897 16.4047C19.1897 16.4047 20.8582 17.9714 21.2096 18.5321C21.2845 18.6396 21.3037 18.7126 21.2441 18.7298Z" fill="url(#paint21_radial_7928_155)"/>
<path d="M21.079 16.6295C21.079 16.6295 23.1718 17.1441 23.9072 16.835C24.6425 16.5258 24.9209 16.3396 24.9209 16.3396L23.9129 18.3978L22.0006 18.513L21.0809 16.6295H21.079Z" fill="#EDE5EB"/>
<path d="M19.2647 13.4058L18.2855 15.3622L19.6563 15.5005L18.9709 16.4048L21.0023 18.7299L22.1082 18.728L20.9389 16.3395L19.2647 13.4058Z" fill="url(#paint22_radial_7928_155)"/>
<path d="M26.5933 13.4058L27.5725 15.3622L26.2016 15.5005L26.887 16.4048L24.8538 18.7299L23.7498 18.728L24.919 16.3395L26.5933 13.4058Z" fill="url(#paint23_radial_7928_155)"/>
<path d="M22.978 16.6909C24.6703 16.6909 26.0423 15.025 26.0423 12.97C26.0423 10.915 24.6703 9.24902 22.978 9.24902C21.2856 9.24902 19.9136 10.915 19.9136 12.97C19.9136 15.025 21.2856 16.6909 22.978 16.6909Z" fill="url(#paint24_radial_7928_155)"/>
<path d="M15.1769 23.9698L15.079 24.3634L14.96 24.8473L14.8256 25.3926C14.8256 25.3926 14.8198 25.383 14.8064 25.3638C14.8064 25.3618 14.8045 25.358 14.8025 25.3561C14.7814 25.3158 14.7469 25.2524 14.7046 25.1602C14.7085 25.141 14.7104 25.1238 14.7142 25.1065C14.7526 24.9164 14.7987 24.7282 14.8505 24.542C14.8505 24.5324 14.8525 24.5286 14.8563 24.5209C14.9331 24.2367 15.0253 23.9622 15.1328 23.6934C15.1462 23.7836 15.1616 23.8758 15.1769 23.9698Z" fill="url(#paint25_radial_7928_155)"/>
<path d="M19.3607 13.4066L19.3088 13.4891L19.0055 13.9711C19.0055 13.9711 18.9959 13.973 18.9786 13.9768C18.9479 13.9864 18.8864 14.0037 18.8019 14.0325C17.9994 14.3128 15.0983 15.6664 14.9274 20.6162C14.6413 20.7026 14.3648 20.7986 14.096 20.8984C14.0115 20.9291 13.9271 20.9618 13.8426 20.9963C13.8157 21.0059 13.7869 21.0155 13.76 21.029C13.7427 20.8293 13.7274 20.62 13.7159 20.405C13.52 16.8837 15.0522 14.9925 16.0794 13.8194C16.5728 13.2549 17.3485 12.8402 18.0186 12.5656C18.0378 12.556 18.057 12.5483 18.0743 12.5407C18.0819 12.5368 18.0877 12.533 18.0954 12.5311C18.7808 12.2546 19.3395 12.124 19.3395 12.124L19.3607 13.4066Z" fill="url(#paint26_radial_7928_155)"/>
<path d="M21.223 18.7297L21.2134 18.7335C21.2134 18.7335 21.198 18.7393 21.1865 18.745C21.1616 18.7546 21.1251 18.77 21.0771 18.7892C20.8908 18.8641 20.5414 19.0081 20.1209 19.1885C20.1171 19.1905 20.1132 19.1924 20.1075 19.1943C19.5833 19.4209 18.9478 19.7069 18.3776 19.9949C18.3507 20.0084 18.3238 20.0218 18.2969 20.0353L18.2854 20.041C18.1337 20.1178 17.9897 20.1946 17.8534 20.2714H17.8515C17.7689 20.3175 17.6902 20.3636 17.6153 20.4077C17.3753 20.5479 17.1737 20.6842 17.0316 20.8052C17.166 20.6708 17.3043 20.5421 17.4464 20.4193H17.4483C17.4886 20.3828 17.527 20.3482 17.5673 20.3156C17.7536 20.1601 17.9456 20.0103 18.1452 19.8721C17.8304 19.922 17.5212 19.9777 17.2198 20.0372C17.3696 19.6378 17.6384 19.1252 18.1184 18.6029C18.1184 18.6029 18.1203 18.5991 18.128 18.5933C18.1337 18.5857 18.1414 18.578 18.1472 18.5703C18.151 18.5645 18.1568 18.5588 18.1625 18.553C18.4352 18.265 18.7712 17.977 19.1897 17.7063C19.3452 17.6045 19.5123 17.5066 19.6908 17.4106C19.7273 17.3914 19.7638 17.3722 19.8003 17.353L21.056 18.5684L21.223 18.7297Z" fill="#244C0F"/>
<path d="M29.0028 21.1335C29.0028 21.1335 28.878 18.7143 26.2207 17.353L24.798 18.7297C24.798 18.7297 28.1004 20.3617 29.0028 21.1335Z" fill="#244C0F"/>
<path d="M20.2823 11.1984C20.2823 11.1984 20.2881 11.1849 20.2919 11.1772C20.2919 11.1753 20.2919 11.1734 20.2957 11.1715C20.8257 10.0636 21.8279 9.31292 22.978 9.31292C24.1281 9.31292 25.1303 10.0636 25.6583 11.1715C25.6602 11.1734 25.6621 11.1753 25.6621 11.1772C25.666 11.1849 25.6698 11.1907 25.6717 11.1984C25.9194 11.7244 26.0596 12.3292 26.0596 12.9724C26.0596 13.6156 25.9194 14.2185 25.6717 14.7446C25.6698 14.7523 25.666 14.758 25.6621 14.7657C25.6621 14.7657 25.6602 14.7696 25.6583 14.7715C25.1303 15.8793 24.1261 16.63 22.978 16.63C21.8298 16.63 20.8257 15.8793 20.2957 14.7715C20.2938 14.7696 20.2919 14.7676 20.2919 14.7657C20.2881 14.758 20.2842 14.7523 20.2823 14.7446C20.0346 14.2185 19.8945 13.6156 19.8945 12.9724C19.8945 12.3292 20.0346 11.7244 20.2823 11.1984ZM31.5892 15.311C30.0685 12.6441 27.4516 11.807 26.6394 11.6054C26.1383 9.8294 24.6868 8.54492 22.978 8.54492C21.2692 8.54492 19.8177 9.8294 19.3146 11.6054C18.5025 11.807 15.8855 12.6441 14.3668 15.311C13.4433 16.9296 13.1073 18.8995 13.3549 21.1958C13.4874 21.1363 13.6218 21.0806 13.7601 21.0288C13.7869 21.0153 13.8157 21.0057 13.8426 20.9961C13.9271 20.9616 14.0116 20.9289 14.0961 20.8982C13.9079 18.863 14.2189 17.1235 15.0273 15.7008C16.2119 13.6137 18.201 12.7574 19.1533 12.454C19.1361 12.623 19.1265 12.7977 19.1265 12.9724C19.1265 13.0876 19.1303 13.2009 19.138 13.3123L18.802 14.0323L18.1434 15.4435L19.2378 15.7468L18.8404 16.5648L19.6737 17.3942L19.6909 17.4115L20.8929 18.6076L20.8986 18.6115L21.0445 18.7574H21.0465L21.0772 18.79L21.3037 19.0147L21.5745 18.742L21.561 18.7286L21.3383 18.5059L19.305 16.486L19.6026 15.8697H19.6045L19.7831 15.5011L18.6829 15.1958L18.7213 15.1132L19.2359 14.015C19.3473 14.5449 19.5412 15.0364 19.8023 15.4723C19.8177 15.4992 19.833 15.5241 19.8503 15.551C20.1633 16.0502 20.5626 16.4726 21.0253 16.7856L21.2097 16.8969L21.3364 16.9737C21.8337 17.2464 22.3905 17.398 22.978 17.398C23.5655 17.398 24.1108 17.2502 24.6042 16.9833C25.6564 16.4169 26.4513 15.3187 26.7239 13.992L27.2615 15.144L27.2865 15.1958L26.1863 15.5011L26.6644 16.486L24.6292 18.5097L24.4065 18.7305L24.3949 18.742L24.6657 19.0147L24.9421 18.7382L25.0727 18.6096L26.0269 17.6611L26.0346 17.6534L26.2957 17.3942L26.3073 17.3827L27.129 16.5648L26.7316 15.7468L27.826 15.4435L27.1693 14.04L26.818 13.2816C26.8257 13.1798 26.8295 13.0761 26.8295 12.9724C26.8295 12.7977 26.8199 12.623 26.8026 12.454C27.7549 12.7574 29.7441 13.6137 30.9287 15.7008C31.7351 17.1196 32.0461 18.8534 31.8618 20.8828C31.8522 21 31.8388 21.119 31.8234 21.24C31.8234 21.2592 31.8215 21.2784 31.8177 21.2976C31.8042 21.4185 31.7869 21.5433 31.7677 21.6681C31.7313 21.9177 31.6871 22.1731 31.6353 22.4323C31.5066 23.0947 31.33 23.784 31.1053 24.502C31.1053 24.502 31.1034 24.5136 31.0996 24.5193C31.0842 24.575 31.0669 24.6288 31.0497 24.6844V24.6883C31.0324 24.742 31.0151 24.7939 30.9959 24.8476C30.9863 24.8803 30.9767 24.911 30.9652 24.9436C30.9287 25.0531 30.8922 25.1606 30.8538 25.272C30.7828 25.4793 30.7079 25.6848 30.6292 25.894L30.9594 26.0169L31.0055 26.0342L31.1937 26.1052L31.3473 26.1628C31.353 26.1475 31.3588 26.1302 31.3645 26.1148C31.3703 26.1033 31.3741 26.0937 31.378 26.0822C31.4989 25.7539 31.6122 25.4332 31.7159 25.1164C31.977 24.3254 32.1844 23.5632 32.338 22.8297C32.4013 22.5379 32.4532 22.2518 32.4973 21.9696C32.5185 21.8486 32.5357 21.7315 32.5511 21.6144C32.553 21.599 32.5549 21.5836 32.5569 21.5702C32.5741 21.4377 32.5914 21.3072 32.6049 21.1785C32.8487 18.888 32.5108 16.9257 31.5911 15.311H31.5892ZM15.1348 25.3622C15.0983 25.2624 15.0637 25.1644 15.0292 25.0665V25.0627L14.9889 24.936C14.9773 24.9072 14.9677 24.8764 14.9601 24.8476C14.9236 24.742 14.8909 24.6364 14.8602 24.5328C14.8564 24.5289 14.8564 24.5251 14.8564 24.5212C14.8525 24.5289 14.8506 24.5328 14.8506 24.5404C14.7988 24.7286 14.7527 24.9168 14.7143 25.1068C14.7105 25.1241 14.7085 25.1414 14.7047 25.1606C14.6452 25.462 14.6029 25.7673 14.578 26.0803C14.5837 26.0976 14.5895 26.1129 14.5972 26.1302C14.601 26.1417 14.6049 26.1513 14.6087 26.1628L14.8065 26.088L14.9985 26.0169L15.0445 25.9996L15.3268 25.894C15.2596 25.7155 15.1962 25.5369 15.1348 25.3622Z" fill="#244C0F"/>
<path d="M18.2969 20.0355L18.1183 18.6032C18.1183 18.6032 18.7251 17.8774 19.6755 17.3936L20.8966 18.6492L18.2969 20.0355Z" fill="url(#paint27_linear_7928_155)"/>
<path d="M27.6646 20.0355L27.8432 18.6031C27.8432 18.6031 27.3843 17.9484 26.3014 17.3782L25.0649 18.6492L27.6646 20.0355Z" fill="url(#paint28_linear_7928_155)"/>
<path d="M26.3033 11.9292C26.3033 11.9292 29.1718 12.5954 30.4121 14.406C31.6525 16.2166 32.1478 17.9369 32.2381 20.406C32.3283 22.8751 31.1129 25.7686 31.1129 25.7686C31.1129 25.7686 31.3952 23.4857 29.2736 21.6271C27.152 19.7686 25.3145 18.7183 24.8557 18.7298C24.3968 18.7414 26.887 16.4047 26.887 16.4047L26.1881 15.5004L27.5725 15.0415L26.5952 13.4057L26.3053 11.9292H26.3033Z" fill="url(#paint29_radial_7928_155)"/>
<path d="M26.9485 13.9711C26.9485 13.9711 32.2554 15.1999 30.777 23.9704L31.1284 25.3931C31.1284 25.3931 32.0404 23.9263 32.2362 20.405C32.432 16.8837 30.8999 14.9925 29.8727 13.8194C28.8455 12.6463 26.6125 12.124 26.6125 12.124L26.5933 13.4066L26.9485 13.9711Z" fill="url(#paint30_radial_7928_155)"/>
<path d="M21.2441 18.7298H21.2134C21.1693 18.7298 21.1136 18.7394 21.0464 18.7567H21.0445C20.8352 18.8162 20.5184 18.9602 20.1209 19.1887C20.1171 19.1906 20.1133 19.1926 20.1075 19.1945C19.6429 19.4594 19.0669 19.8358 18.4256 20.3119C18.2681 20.429 18.1049 20.5538 17.9398 20.6844H17.9379C17.5731 20.9705 17.1929 21.2854 16.8032 21.6271C16.304 22.0649 15.9373 22.5257 15.6704 22.975C15.6704 22.975 15.6697 22.9762 15.6685 22.9788C15.3785 23.4646 15.2038 23.935 15.1001 24.3478C15.0464 24.5609 15.0118 24.7586 14.9888 24.9353C14.9235 25.4422 14.9638 25.7686 14.9638 25.7686C14.9638 25.7686 14.9024 25.6207 14.8064 25.3634C14.8064 25.3615 14.8045 25.3577 14.8025 25.3558C14.7757 25.2809 14.7469 25.1964 14.7142 25.1062C14.7526 24.9161 14.7987 24.7279 14.8505 24.5417C14.8505 24.5321 14.8525 24.5282 14.8563 24.5206C14.9331 24.2364 15.0253 23.9618 15.1328 23.693C15.4419 22.9078 15.8662 22.1782 16.3827 21.5292H16.3846C16.5651 21.3007 16.759 21.0818 16.9625 20.8745H16.9645C16.9856 20.8514 17.0086 20.8284 17.0317 20.8054C17.1661 20.671 17.3043 20.5423 17.4464 20.4194H17.4483C17.4886 20.383 17.527 20.3484 17.5673 20.3158C17.7536 20.1602 17.9456 20.0105 18.1453 19.8722C17.8304 19.9222 17.5213 19.9778 17.2198 20.0374C16.4038 20.1967 15.6397 20.3887 14.9273 20.6153C14.6413 20.7017 14.3648 20.7977 14.096 20.8975C14.0115 20.9282 13.927 20.9609 13.8425 20.9954C13.8329 20.7958 13.831 20.5999 13.8387 20.4041C13.9289 17.9369 14.4262 16.2146 15.6646 14.406C16.2464 13.5574 17.1833 12.9602 18.0185 12.5647C18.0377 12.5551 18.0569 12.5474 18.0742 12.5398C18.0819 12.5359 18.0877 12.5321 18.0953 12.5302C19.0073 12.1078 19.7734 11.9292 19.7734 11.9292L19.4835 13.4057L19.3702 13.5938L18.5043 15.0415L18.7213 15.1126L19.8022 15.4716L19.8886 15.5004L19.8502 15.5503L19.6045 15.8671H19.6025L19.1897 16.4047C19.1897 16.4047 20.8582 17.9714 21.2096 18.5321C21.2845 18.6396 21.3037 18.7126 21.2441 18.7298Z" fill="url(#paint31_radial_7928_155)"/>
<path d="M21.079 16.6295C21.079 16.6295 23.1718 17.1441 23.9072 16.835C24.6425 16.5258 24.9209 16.3396 24.9209 16.3396L23.9129 18.3978L22.0006 18.513L21.0809 16.6295H21.079Z" fill="#FFF6F6"/>
<path d="M19.2647 13.4058L18.2855 15.3622L19.6563 15.5005L18.9709 16.4048L21.0023 18.7299L22.1082 18.728L20.9389 16.3395L19.2647 13.4058Z" fill="url(#paint32_radial_7928_155)"/>
<path d="M26.5933 13.4058L27.5725 15.3622L26.2016 15.5005L26.887 16.4048L24.8538 18.7299L23.7498 18.728L24.919 16.3395L26.5933 13.4058Z" fill="url(#paint33_radial_7928_155)"/>
<path d="M22.978 16.6909C24.6703 16.6909 26.0423 15.025 26.0423 12.97C26.0423 10.915 24.6703 9.24902 22.978 9.24902C21.2856 9.24902 19.9136 10.915 19.9136 12.97C19.9136 15.025 21.2856 16.6909 22.978 16.6909Z" fill="url(#paint34_radial_7928_155)"/>
<path d="M15.1769 23.9698L15.079 24.3634L14.96 24.8473L14.8256 25.3926C14.8256 25.3926 14.8198 25.383 14.8064 25.3638C14.8064 25.3618 14.8045 25.358 14.8025 25.3561C14.7814 25.3158 14.7469 25.2524 14.7046 25.1602C14.7085 25.141 14.7104 25.1238 14.7142 25.1065C14.7526 24.9164 14.7987 24.7282 14.8505 24.542C14.8505 24.5324 14.8525 24.5286 14.8563 24.5209C14.9331 24.2367 15.0253 23.9622 15.1328 23.6934C15.1462 23.7836 15.1616 23.8758 15.1769 23.9698Z" fill="url(#paint35_radial_7928_155)"/>
<path d="M19.3607 13.4066L19.3088 13.4891L19.0055 13.9711C19.0055 13.9711 18.9959 13.973 18.9786 13.9768C18.9479 13.9864 18.8864 14.0037 18.8019 14.0325C17.9994 14.3128 15.0983 15.6664 14.9274 20.6162C14.6413 20.7026 14.3648 20.7986 14.096 20.8984C14.0115 20.9291 13.9271 20.9618 13.8426 20.9963C13.8157 21.0059 13.7869 21.0155 13.76 21.029C13.7427 20.8293 13.7274 20.62 13.7159 20.405C13.52 16.8837 15.0522 14.9925 16.0794 13.8194C16.5728 13.2549 17.3485 12.8402 18.0186 12.5656C18.0378 12.556 18.057 12.5483 18.0743 12.5407C18.0819 12.5368 18.0877 12.533 18.0954 12.5311C18.7808 12.2546 19.3395 12.124 19.3395 12.124L19.3607 13.4066Z" fill="url(#paint36_radial_7928_155)"/>
<path d="M21.223 18.7297L21.2134 18.7335C21.2134 18.7335 21.198 18.7393 21.1865 18.745C21.1616 18.7546 21.1251 18.77 21.0771 18.7892C20.8908 18.8641 20.5414 19.0081 20.1209 19.1885C20.1171 19.1905 20.1132 19.1924 20.1075 19.1943C19.5833 19.4209 18.9478 19.7069 18.3776 19.9949C18.3507 20.0084 18.3238 20.0218 18.2969 20.0353L18.2854 20.041C18.1337 20.1178 17.9897 20.1946 17.8534 20.2714H17.8515C17.7689 20.3175 17.6902 20.3636 17.6153 20.4077C17.3753 20.5479 17.1737 20.6842 17.0316 20.8052C17.166 20.6708 17.3043 20.5421 17.4464 20.4193H17.4483C17.4886 20.3828 17.527 20.3482 17.5673 20.3156C17.7536 20.1601 17.9456 20.0103 18.1452 19.8721C17.8304 19.922 17.5212 19.9777 17.2198 20.0372C17.3696 19.6378 17.6384 19.1252 18.1184 18.6029C18.1184 18.6029 18.1203 18.5991 18.128 18.5933C18.1337 18.5857 18.1414 18.578 18.1472 18.5703C18.151 18.5645 18.1568 18.5588 18.1625 18.553C18.4352 18.265 18.7712 17.977 19.1897 17.7063C19.3452 17.6045 19.5123 17.5066 19.6908 17.4106C19.7273 17.3914 19.7638 17.3722 19.8003 17.353L21.056 18.5684L21.223 18.7297Z" fill="#244C0F"/>
<path d="M29.0028 21.1335C29.0028 21.1335 28.878 18.7143 26.2207 17.353L24.798 18.7297C24.798 18.7297 28.1004 20.3617 29.0028 21.1335Z" fill="#244C0F"/>
<path d="M20.2823 11.1984C20.2823 11.1984 20.2881 11.1849 20.2919 11.1772C20.2919 11.1753 20.2919 11.1734 20.2957 11.1715C20.8257 10.0636 21.8279 9.31292 22.978 9.31292C24.1281 9.31292 25.1303 10.0636 25.6583 11.1715C25.6602 11.1734 25.6621 11.1753 25.6621 11.1772C25.666 11.1849 25.6698 11.1907 25.6717 11.1984C25.9194 11.7244 26.0596 12.3292 26.0596 12.9724C26.0596 13.6156 25.9194 14.2185 25.6717 14.7446C25.6698 14.7523 25.666 14.758 25.6621 14.7657C25.6621 14.7657 25.6602 14.7696 25.6583 14.7715C25.1303 15.8793 24.1261 16.63 22.978 16.63C21.8298 16.63 20.8257 15.8793 20.2957 14.7715C20.2938 14.7696 20.2919 14.7676 20.2919 14.7657C20.2881 14.758 20.2842 14.7523 20.2823 14.7446C20.0346 14.2185 19.8945 13.6156 19.8945 12.9724C19.8945 12.3292 20.0346 11.7244 20.2823 11.1984ZM31.5892 15.311C30.0685 12.6441 27.4516 11.807 26.6394 11.6054C26.1383 9.8294 24.6868 8.54492 22.978 8.54492C21.2692 8.54492 19.8177 9.8294 19.3146 11.6054C18.5025 11.807 15.8855 12.6441 14.3668 15.311C13.4433 16.9296 13.1073 18.8995 13.3549 21.1958C13.4874 21.1363 13.6218 21.0806 13.7601 21.0288C13.7869 21.0153 13.8157 21.0057 13.8426 20.9961C13.9271 20.9616 14.0116 20.9289 14.0961 20.8982C13.9079 18.863 14.2189 17.1235 15.0273 15.7008C16.2119 13.6137 18.201 12.7574 19.1533 12.454C19.1361 12.623 19.1265 12.7977 19.1265 12.9724C19.1265 13.0876 19.1303 13.2009 19.138 13.3123L18.802 14.0323L18.1434 15.4435L19.2378 15.7468L18.8404 16.5648L19.6737 17.3942L19.6909 17.4115L20.8929 18.6076L20.8986 18.6115L21.0445 18.7574H21.0465L21.0772 18.79L21.3037 19.0147L21.5745 18.742L21.561 18.7286L21.3383 18.5059L19.305 16.486L19.6026 15.8697H19.6045L19.7831 15.5011L18.6829 15.1958L18.7213 15.1132L19.2359 14.015C19.3473 14.5449 19.5412 15.0364 19.8023 15.4723C19.8177 15.4992 19.833 15.5241 19.8503 15.551C20.1633 16.0502 20.5626 16.4726 21.0253 16.7856L21.2097 16.8969L21.3364 16.9737C21.8337 17.2464 22.3905 17.398 22.978 17.398C23.5655 17.398 24.1108 17.2502 24.6042 16.9833C25.6564 16.4169 26.4513 15.3187 26.7239 13.992L27.2615 15.144L27.2865 15.1958L26.1863 15.5011L26.6644 16.486L24.6292 18.5097L24.4065 18.7305L24.3949 18.742L24.6657 19.0147L24.9421 18.7382L25.0727 18.6096L26.0269 17.6611L26.0346 17.6534L26.2957 17.3942L26.3073 17.3827L27.129 16.5648L26.7316 15.7468L27.826 15.4435L27.1693 14.04L26.818 13.2816C26.8257 13.1798 26.8295 13.0761 26.8295 12.9724C26.8295 12.7977 26.8199 12.623 26.8026 12.454C27.7549 12.7574 29.7441 13.6137 30.9287 15.7008C31.7351 17.1196 32.0461 18.8534 31.8618 20.8828C31.8522 21 31.8388 21.119 31.8234 21.24C31.8234 21.2592 31.8215 21.2784 31.8177 21.2976C31.8042 21.4185 31.7869 21.5433 31.7677 21.6681C31.7313 21.9177 31.6871 22.1731 31.6353 22.4323C31.5066 23.0947 31.33 23.784 31.1053 24.502C31.1053 24.502 31.1034 24.5136 31.0996 24.5193C31.0842 24.575 31.0669 24.6288 31.0497 24.6844V24.6883C31.0324 24.742 31.0151 24.7939 30.9959 24.8476C30.9863 24.8803 30.9767 24.911 30.9652 24.9436C30.9287 25.0531 30.8922 25.1606 30.8538 25.272C30.7828 25.4793 30.7079 25.6848 30.6292 25.894L30.9594 26.0169L31.0055 26.0342L31.1937 26.1052L31.3473 26.1628C31.353 26.1475 31.3588 26.1302 31.3645 26.1148C31.3703 26.1033 31.3741 26.0937 31.378 26.0822C31.4989 25.7539 31.6122 25.4332 31.7159 25.1164C31.977 24.3254 32.1844 23.5632 32.338 22.8297C32.4013 22.5379 32.4532 22.2518 32.4973 21.9696C32.5185 21.8486 32.5357 21.7315 32.5511 21.6144C32.553 21.599 32.5549 21.5836 32.5569 21.5702C32.5741 21.4377 32.5914 21.3072 32.6049 21.1785C32.8487 18.888 32.5108 16.9257 31.5911 15.311H31.5892ZM15.1348 25.3622C15.0983 25.2624 15.0637 25.1644 15.0292 25.0665V25.0627L14.9889 24.936C14.9773 24.9072 14.9677 24.8764 14.9601 24.8476C14.9236 24.742 14.8909 24.6364 14.8602 24.5328C14.8564 24.5289 14.8564 24.5251 14.8564 24.5212C14.8525 24.5289 14.8506 24.5328 14.8506 24.5404C14.7988 24.7286 14.7527 24.9168 14.7143 25.1068C14.7105 25.1241 14.7085 25.1414 14.7047 25.1606C14.6452 25.462 14.6029 25.7673 14.578 26.0803C14.5837 26.0976 14.5895 26.1129 14.5972 26.1302C14.601 26.1417 14.6049 26.1513 14.6087 26.1628L14.8065 26.088L14.9985 26.0169L15.0445 25.9996L15.3268 25.894C15.2596 25.7155 15.1962 25.5369 15.1348 25.3622Z" fill="#244C0F"/>
<path d="M18.2969 20.0355L18.1183 18.6032C18.1183 18.6032 18.7251 17.8774 19.6755 17.3936L20.8966 18.6492L18.2969 20.0355Z" fill="url(#paint37_linear_7928_155)"/>
<path d="M27.6646 20.0355L27.8432 18.6031C27.8432 18.6031 27.3843 17.9484 26.3014 17.3782L25.0649 18.6492L27.6646 20.0355Z" fill="url(#paint38_linear_7928_155)"/>
<path d="M31.3798 26.1193C31.3778 26.1059 31.3778 26.0924 31.3759 26.0809C31.3548 25.8255 31.3241 25.5759 31.2799 25.3302C31.2703 25.2726 31.2607 25.215 31.2492 25.1593C31.207 24.9423 31.157 24.7292 31.0975 24.5199C31.0956 24.5084 31.0937 24.5007 31.0898 24.4911C31.015 24.2185 30.9247 23.9516 30.821 23.6924C30.5081 22.8956 30.078 22.1603 29.55 21.5036C29.3714 21.2809 29.1794 21.0659 28.9778 20.8623H28.9759C28.9759 20.8623 28.9702 20.8527 28.9644 20.8489C28.8166 20.6972 28.661 20.5532 28.5017 20.4131C28.4594 20.3766 28.4172 20.3401 28.375 20.3055C28.1887 20.15 27.9948 20.0022 27.7951 19.8639C27.7951 19.8639 27.7932 19.8639 27.7932 19.862C27.7606 19.839 27.7298 19.8159 27.6953 19.7929C26.9119 19.2611 26.0364 18.8598 25.0975 18.614C25.0879 18.6121 25.0802 18.6102 25.0726 18.6083C25.0399 18.6006 25.0092 18.5929 24.9785 18.5852C24.9708 18.5833 24.9612 18.5814 24.9535 18.5795C24.919 18.5699 24.8844 18.5622 24.8498 18.5564C24.7769 18.5372 24.7039 18.5219 24.629 18.5084C24.3929 18.4604 24.1548 18.4239 23.911 18.3971H23.909C23.6038 18.3625 23.2927 18.3452 22.9778 18.3452C22.6303 18.3452 22.2866 18.3663 21.9506 18.4067H21.9468C21.7414 18.4335 21.5378 18.4662 21.3382 18.5046C21.2959 18.5142 21.2518 18.5219 21.2095 18.5315C21.1577 18.543 21.1078 18.5545 21.0559 18.5679C21.0022 18.5795 20.9484 18.591 20.8946 18.6044C20.8946 18.6044 20.8946 18.6044 20.8927 18.6044C20.8831 18.6063 20.8735 18.6102 20.862 18.6121C19.925 18.8559 19.0495 19.2572 18.2662 19.7871C18.2258 19.8121 18.1855 19.8409 18.1452 19.8697C17.9455 20.0079 17.7535 20.1577 17.5673 20.3132C17.527 20.3459 17.4886 20.3804 17.4482 20.4169H17.4463C17.3042 20.5398 17.166 20.6684 17.0316 20.8028C17.0086 20.8259 16.9855 20.8489 16.9644 20.8719H16.9625C16.759 21.0793 16.565 21.2982 16.3846 21.5267H16.3826C15.8662 22.1756 15.4418 22.9052 15.1327 23.6905C15.0252 23.9593 14.933 24.2339 14.8562 24.5161C14.8562 24.5161 14.8505 24.5295 14.8505 24.5372C14.7986 24.7254 14.7526 24.9135 14.7142 25.1036C14.7103 25.1209 14.7084 25.1382 14.7046 25.1574C14.645 25.4588 14.6028 25.7641 14.5778 26.0771C14.5759 26.0982 14.574 26.1174 14.574 26.1366C14.5567 26.3459 14.549 26.559 14.549 26.7721C14.549 27.5363 14.6508 28.2774 14.8428 28.982C14.8428 28.9897 14.8466 28.9993 14.8505 29.007C14.8582 29.0377 14.8658 29.0665 14.8754 29.0972C14.8774 29.1068 14.8812 29.1164 14.885 29.126C14.8927 29.1587 14.9023 29.1913 14.9138 29.222C14.935 29.2969 14.958 29.3718 14.983 29.4447H14.9849C15.0598 29.6732 15.1462 29.8979 15.2402 30.1167C15.2633 30.1667 15.2844 30.2185 15.3074 30.2665C15.3074 30.2665 15.3094 30.2665 15.3094 30.2703C15.557 30.8079 15.8566 31.3148 16.206 31.7833C16.206 31.7852 16.2079 31.7852 16.2079 31.7852C16.325 31.9446 16.4479 32.1001 16.5785 32.2499C16.6092 32.2863 16.6399 32.3228 16.6745 32.3593C16.7052 32.3958 16.7378 32.4323 16.7705 32.4668C16.8089 32.5091 16.8454 32.5494 16.8838 32.5897C16.8838 32.5897 16.8838 32.5903 16.8838 32.5916C16.903 32.6108 16.9202 32.63 16.9394 32.6492H16.9414C17.6038 33.3289 18.3794 33.8972 19.2358 34.3235C19.3145 34.3619 19.3932 34.4003 19.4719 34.4367C19.7215 34.55 19.9788 34.6537 20.2418 34.7439C20.2726 34.7555 20.3033 34.7651 20.3359 34.7747C20.3474 34.7804 20.357 34.7843 20.3705 34.7862H20.3724C20.5606 34.8495 20.7526 34.9052 20.9484 34.9532C21.221 35.0204 21.4994 35.0742 21.7817 35.1145C22.1714 35.1702 22.5689 35.199 22.974 35.199C23.3791 35.199 23.813 35.1683 24.2201 35.1068H24.222C24.5062 35.0646 24.7846 35.0089 25.0572 34.9398C25.253 34.8879 25.447 34.8323 25.637 34.767H25.639C25.639 34.767 25.6582 34.7612 25.6678 34.7574C25.7215 34.7401 25.7753 34.7209 25.8271 34.6998C25.829 34.6998 25.831 34.6979 25.8329 34.6979C26.0633 34.6172 26.286 34.5251 26.5049 34.4233C26.5836 34.3868 26.6623 34.3484 26.7391 34.31C27.5532 33.9011 28.2924 33.3654 28.9298 32.7279C28.9855 32.6723 29.0412 32.6147 29.0969 32.5571C29.0988 32.5551 29.1007 32.5532 29.1007 32.5513C29.141 32.511 29.1775 32.4687 29.214 32.4265C29.2447 32.3958 29.2735 32.3631 29.3004 32.3305C29.3369 32.2921 29.3714 32.2518 29.4041 32.2115C29.5308 32.0636 29.6518 31.91 29.767 31.7526C29.767 31.7526 29.767 31.7526 29.767 31.7507C30.0396 31.3801 30.2815 30.9884 30.4908 30.5718C30.4927 30.5699 30.4927 30.566 30.4946 30.5641C30.4966 30.5641 30.4966 30.5622 30.4966 30.5622C30.5714 30.4143 30.6425 30.2646 30.7078 30.1129C30.8018 29.8998 30.8844 29.6809 30.9593 29.4582C30.9862 29.3795 31.013 29.2988 31.0361 29.2182C31.0457 29.1932 31.0534 29.1663 31.0591 29.1414C31.063 29.1299 31.0668 29.1183 31.0687 29.1068C31.0783 29.078 31.086 29.0511 31.0937 29.0223C31.1052 28.9801 31.1167 28.9379 31.1282 28.8975C31.3049 28.2179 31.399 27.5055 31.399 26.7721C31.399 26.5513 31.3913 26.3324 31.374 26.1174L31.3798 26.1193ZM22.9778 34.4329C18.7538 34.4329 15.317 30.998 15.317 26.774C15.317 26.6953 15.319 26.6166 15.3209 26.5379C15.3228 26.4783 15.3247 26.4188 15.3286 26.3593C15.3286 26.3497 15.3286 26.3382 15.3305 26.3286C15.3324 26.2806 15.3362 26.2326 15.3401 26.1846C15.3458 26.0924 15.3554 26.0003 15.367 25.91C15.3727 25.8563 15.3785 25.8044 15.3862 25.7507C15.3938 25.6835 15.4034 25.6163 15.415 25.551C15.4265 25.4819 15.438 25.4108 15.4514 25.3417C15.4649 25.2726 15.4783 25.2054 15.4937 25.1363C15.5071 25.071 15.5225 25.0038 15.5398 24.9385C15.5474 24.9078 15.5551 24.8751 15.5628 24.8444C15.5935 24.7292 15.6242 24.614 15.6607 24.5027C15.6799 24.4412 15.6991 24.3798 15.7202 24.3203C15.7567 24.2089 15.797 24.0995 15.8393 23.9919C15.8892 23.8671 15.941 23.7443 15.9948 23.6252C16.039 23.5292 16.085 23.4332 16.133 23.3372C16.1695 23.2662 16.206 23.1951 16.2444 23.126C16.277 23.0627 16.3116 23.0012 16.3481 22.9417C16.3692 22.9033 16.3922 22.8649 16.4153 22.8284C16.4498 22.767 16.4882 22.7075 16.5266 22.6479C16.5919 22.5443 16.661 22.4425 16.7321 22.3427C16.7801 22.2755 16.83 22.2083 16.8799 22.143C16.9202 22.0892 16.9625 22.0355 17.0047 21.9836C17.0527 21.9222 17.1026 21.8627 17.1526 21.8051C17.2044 21.7436 17.2562 21.6841 17.31 21.6265C17.3618 21.5689 17.4137 21.5132 17.4674 21.4595C17.525 21.3961 17.5865 21.3366 17.6479 21.2771C17.6844 21.2425 17.7209 21.2099 17.7554 21.1753C17.8476 21.0889 17.9417 21.0044 18.0377 20.9238C18.1222 20.8527 18.2066 20.7836 18.293 20.7164C18.3218 20.6934 18.3506 20.6723 18.3794 20.6511C18.4831 20.5724 18.5906 20.4956 18.6982 20.4227C18.7826 20.3651 18.869 20.3094 18.9554 20.2556C19.038 20.2038 19.1225 20.1539 19.2089 20.1059C19.2914 20.0598 19.374 20.0137 19.4585 19.9715C19.495 19.9503 19.5334 19.9311 19.5718 19.9139C19.6236 19.887 19.6754 19.862 19.7273 19.839C19.7849 19.8102 19.8444 19.7833 19.9039 19.7583C19.9692 19.7295 20.0326 19.7007 20.0978 19.6758C20.1478 19.6547 20.1996 19.6335 20.2514 19.6143C20.3167 19.5894 20.382 19.5663 20.4473 19.5433C20.5433 19.5087 20.6412 19.4761 20.7391 19.4473C20.7871 19.43 20.8351 19.4166 20.8831 19.4051C21.0041 19.3705 21.127 19.3379 21.2498 19.3091C21.3612 19.2841 21.4745 19.2611 21.5897 19.2399C21.6262 19.2323 21.6626 19.2265 21.6991 19.2207C21.7702 19.2092 21.8412 19.1977 21.9122 19.1881C21.9967 19.1747 22.0831 19.1651 22.1695 19.1574C22.1887 19.1535 22.2079 19.1516 22.2271 19.1516C22.3193 19.1401 22.4114 19.1324 22.5055 19.1286C22.5708 19.1247 22.6342 19.1209 22.6994 19.119C22.7916 19.1151 22.8857 19.1132 22.9778 19.1132C27.2018 19.1132 30.6367 22.55 30.6367 26.774C30.6367 30.998 27.2018 34.4329 22.9778 34.4329Z" fill="#737373"/>
<path d="M30.6387 26.7748C30.6387 30.9988 27.2038 34.4337 22.9798 34.4337C18.7558 34.4337 15.319 30.9988 15.319 26.7748C15.319 22.5508 18.7558 19.114 22.9798 19.114C27.2038 19.114 30.6387 22.5508 30.6387 26.7748Z" fill="white"/>
<path d="M25.8368 21.3008H20.718L20.3264 27.1049C20.3264 27.1049 21.2556 26.648 22.2502 26.648C23.2448 26.648 24.0761 26.8918 24.0761 28.5718C24.0761 30.2518 21.7452 30.9853 19.9673 30.2672L19.8368 31.6035C19.8368 31.6035 26.1612 32.8419 26.1612 28.0822C26.1612 24.6109 22.3788 25.2137 22.3788 25.2137L22.6073 23.0288H25.8022L25.8348 21.3008H25.8368Z" fill="#E4A545"/>
</g>
<defs>
<radialGradient id="paint0_radial_7928_155" cx="0" cy="0" r="1" gradientUnits="userSpaceOnUse" gradientTransform="translate(13.0707 25.4675) scale(3.6384 3.6384)">
<stop stop-color="#E3F352"/>
<stop offset="0.21" stop-color="#DDE248"/>
<stop offset="0.59" stop-color="#D5CB3B"/>
<stop offset="0.83" stop-color="#D2C337"/>
</radialGradient>
<radialGradient id="paint1_radial_7928_155" cx="0" cy="0" r="1" gradientUnits="userSpaceOnUse" gradientTransform="translate(11.2505 23.8483) scale(13.5629 13.5629)">
<stop stop-color="#E3F352"/>
<stop offset="0.11" stop-color="#DDE248"/>
<stop offset="0.32" stop-color="#D5CB3B"/>
<stop offset="0.45" stop-color="#D2C337"/>
</radialGradient>
<radialGradient id="paint2_radial_7928_155" cx="0" cy="0" r="1" gradientUnits="userSpaceOnUse" gradientTransform="translate(8.71803 28.9925) scale(9.47712)">
<stop stop-color="#E3F352"/>
<stop offset="0.21" stop-color="#DDE248"/>
<stop offset="0.59" stop-color="#D5CB3B"/>
<stop offset="0.83" stop-color="#D2C337"/>
</radialGradient>
<radialGradient id="paint3_radial_7928_155" cx="0" cy="0" r="1" gradientUnits="userSpaceOnUse" gradientTransform="translate(8.1363 28.823) scale(8.4672 8.4672)">
<stop stop-color="#E3F352"/>
<stop offset="0.11" stop-color="#DDE248"/>
<stop offset="0.32" stop-color="#D5CB3B"/>
<stop offset="0.45" stop-color="#D2C337"/>
</radialGradient>
<radialGradient id="paint4_radial_7928_155" cx="0" cy="0" r="1" gradientUnits="userSpaceOnUse" gradientTransform="translate(16.3962 21.2842) scale(2.10432 2.10432)">
<stop stop-color="#E3F352"/>
<stop offset="0.11" stop-color="#DDE248"/>
<stop offset="0.32" stop-color="#D5CB3B"/>
<stop offset="0.45" stop-color="#D2C337"/>
</radialGradient>
<radialGradient id="paint5_radial_7928_155" cx="0" cy="0" r="1" gradientUnits="userSpaceOnUse" gradientTransform="translate(15.7625 35.6625) scale(8.16576 8.16576)">
<stop stop-color="#E3F352"/>
<stop offset="0.11" stop-color="#DDE248"/>
<stop offset="0.32" stop-color="#D5CB3B"/>
<stop offset="0.45" stop-color="#D2C337"/>
</radialGradient>
<linearGradient id="paint6_linear_7928_155" x1="17.7819" y1="31.5513" x2="12.6974" y2="38.0431" gradientUnits="userSpaceOnUse">
<stop stop-color="#E3F352"/>
<stop offset="0.11" stop-color="#DEED4F"/>
<stop offset="0.24" stop-color="#D3DD48"/>
<stop offset="0.39" stop-color="#BFC33D"/>
<stop offset="0.55" stop-color="#A49F2D"/>
<stop offset="0.67" stop-color="#8E8120"/>
</linearGradient>
<linearGradient id="paint7_linear_7928_155" x1="16.569" y1="29.3632" x2="10.7878" y2="29.321" gradientUnits="userSpaceOnUse">
<stop stop-color="#E3F352"/>
<stop offset="0.14" stop-color="#DEED4F"/>
<stop offset="0.33" stop-color="#D3DD48"/>
<stop offset="0.53" stop-color="#BFC33D"/>
<stop offset="0.75" stop-color="#A49F2D"/>
<stop offset="0.9" stop-color="#8E8120"/>
</linearGradient>
<radialGradient id="paint8_radial_7928_155" cx="0" cy="0" r="1" gradientUnits="userSpaceOnUse" gradientTransform="translate(9.2626 32.2715) scale(6.55488)">
<stop stop-color="#E5E52C"/>
<stop offset="0.21" stop-color="#C5C11D"/>
<stop offset="0.66" stop-color="#877A00"/>
</radialGradient>
<radialGradient id="paint9_radial_7928_155" cx="0" cy="0" r="1" gradientUnits="userSpaceOnUse" gradientTransform="translate(13.0563 37.1567) rotate(60.75) scale(19.8701 19.8701)">
<stop stop-color="#E3F352"/>
<stop offset="0.11" stop-color="#DDE248"/>
<stop offset="0.32" stop-color="#D5CB3B"/>
<stop offset="0.45" stop-color="#D2C337"/>
</radialGradient>
<radialGradient id="paint10_radial_7928_155" cx="0" cy="0" r="1" gradientUnits="userSpaceOnUse" gradientTransform="translate(15.948 29.022) rotate(-135.44) scale(7.19232 6.76078)">
<stop stop-color="#E3F352"/>
<stop offset="0.14" stop-color="#DEED4F"/>
<stop offset="0.33" stop-color="#D3DD48"/>
<stop offset="0.53" stop-color="#BFC33D"/>
<stop offset="0.75" stop-color="#A49F2D"/>
<stop offset="0.9" stop-color="#8E8120"/>
</radialGradient>
<radialGradient id="paint11_radial_7928_155" cx="0" cy="0" r="1" gradientUnits="userSpaceOnUse" gradientTransform="translate(15.8701 29.1006) scale(4.46784 4.46784)">
<stop stop-color="#E3F352"/>
<stop offset="0.14" stop-color="#DEED4F"/>
<stop offset="0.33" stop-color="#D3DD48"/>
<stop offset="0.53" stop-color="#BFC33D"/>
<stop offset="0.75" stop-color="#A49F2D"/>
<stop offset="0.9" stop-color="#8E8120"/>
</radialGradient>
<radialGradient id="paint12_radial_7928_155" cx="0" cy="0" r="1" gradientUnits="userSpaceOnUse" gradientTransform="translate(34.0356 28.2241) rotate(-60.75) scale(14.2733 14.2733)">
<stop stop-color="#1DB1EF"/>
<stop offset="0.29" stop-color="#189CEC"/>
<stop offset="0.49" stop-color="#1794EB"/>
</radialGradient>
<radialGradient id="paint13_radial_7928_155" cx="0" cy="0" r="1" gradientUnits="userSpaceOnUse" gradientTransform="translate(37.0011 29.9107) rotate(-60.75) scale(19.8701)">
<stop stop-color="#1DD1EF"/>
<stop offset="0.18" stop-color="#1AB3ED"/>
<stop offset="0.37" stop-color="#179CEB"/>
<stop offset="0.49" stop-color="#1794EB"/>
</radialGradient>
<radialGradient id="paint14_radial_7928_155" cx="0" cy="0" r="1" gradientUnits="userSpaceOnUse" gradientTransform="translate(30.0153 35.4009) rotate(119.25) scale(8.12736 8.12736)">
<stop stop-color="#1DB1EF"/>
<stop offset="0.29" stop-color="#189CEC"/>
<stop offset="0.49" stop-color="#1794EB"/>
</radialGradient>
<linearGradient id="paint15_linear_7928_155" x1="28.217" y1="31.5492" x2="33.3021" y2="38.0428" gradientUnits="userSpaceOnUse">
<stop stop-color="#67ACE1"/>
<stop offset="0.17" stop-color="#5494C9"/>
<stop offset="0.63" stop-color="#23598E"/>
<stop offset="0.85" stop-color="#114277"/>
</linearGradient>
<linearGradient id="paint16_linear_7928_155" x1="30.8824" y1="29.9522" x2="36.4928" y2="29.1839" gradientUnits="userSpaceOnUse">
<stop stop-color="#67ACE1"/>
<stop offset="0.17" stop-color="#5494C9"/>
<stop offset="0.63" stop-color="#23598E"/>
<stop offset="0.85" stop-color="#114277"/>
</linearGradient>
<radialGradient id="paint17_radial_7928_155" cx="0" cy="0" r="1" gradientUnits="userSpaceOnUse" gradientTransform="translate(35.0685 32.3951) scale(5.60448)">
<stop stop-color="#67ACE1"/>
<stop offset="0.17" stop-color="#5494C9"/>
<stop offset="0.63" stop-color="#23598E"/>
<stop offset="0.85" stop-color="#114277"/>
</radialGradient>
<radialGradient id="paint18_radial_7928_155" cx="0" cy="0" r="1" gradientUnits="userSpaceOnUse" gradientTransform="translate(32.943 37.1566) rotate(119.25) scale(19.8701 19.8701)">
<stop stop-color="#1DD1EF"/>
<stop offset="0.18" stop-color="#1AB3ED"/>
<stop offset="0.37" stop-color="#179CEB"/>
<stop offset="0.49" stop-color="#1794EB"/>
</radialGradient>
<radialGradient id="paint19_radial_7928_155" cx="0" cy="0" r="1" gradientUnits="userSpaceOnUse" gradientTransform="translate(27.152 16.493) scale(14.2733 14.2733)">
<stop stop-color="#9FCB7E"/>
<stop offset="0.1" stop-color="#8AB66F"/>
<stop offset="0.32" stop-color="#659154"/>
<stop offset="0.49" stop-color="#4D7943"/>
<stop offset="0.6" stop-color="#45713D"/>
</radialGradient>
<radialGradient id="paint20_radial_7928_155" cx="0" cy="0" r="1" gradientUnits="userSpaceOnUse" gradientTransform="translate(27.129 13.0802) scale(19.8701 19.8701)">
<stop stop-color="#BFE0A4"/>
<stop offset="0.21" stop-color="#8BB078"/>
<stop offset="0.38" stop-color="#658D57"/>
<stop offset="0.52" stop-color="#4D7844"/>
<stop offset="0.6" stop-color="#45713D"/>
</radialGradient>
<radialGradient id="paint21_radial_7928_155" cx="0" cy="0" r="1" gradientUnits="userSpaceOnUse" gradientTransform="translate(16.1888 16.493) scale(14.2752 14.2752)">
<stop stop-color="#9FCB7E"/>
<stop offset="0.1" stop-color="#8AB66F"/>
<stop offset="0.32" stop-color="#659154"/>
<stop offset="0.49" stop-color="#4D7943"/>
<stop offset="0.6" stop-color="#45713D"/>
</radialGradient>
<radialGradient id="paint22_radial_7928_155" cx="0" cy="0" r="1" gradientUnits="userSpaceOnUse" gradientTransform="translate(21.6762 18.6224) scale(6.4992)">
<stop stop-color="#9FCB7E"/>
<stop offset="0.11" stop-color="#8AB66F"/>
<stop offset="0.35" stop-color="#659154"/>
<stop offset="0.54" stop-color="#4D7943"/>
<stop offset="0.65" stop-color="#45713D"/>
</radialGradient>
<radialGradient id="paint23_radial_7928_155" cx="0" cy="0" r="1" gradientUnits="userSpaceOnUse" gradientTransform="translate(24.1798 18.6224) rotate(180) scale(6.4992)">
<stop stop-color="#9FCB7E"/>
<stop offset="0.11" stop-color="#8AB66F"/>
<stop offset="0.35" stop-color="#659154"/>
<stop offset="0.54" stop-color="#4D7943"/>
<stop offset="0.65" stop-color="#45713D"/>
</radialGradient>
<radialGradient id="paint24_radial_7928_155" cx="0" cy="0" r="1" gradientUnits="userSpaceOnUse" gradientTransform="translate(22.4231 11.6989) scale(5.50272 5.50272)">
<stop stop-color="#9FCB7E"/>
<stop offset="0.11" stop-color="#8AB66F"/>
<stop offset="0.35" stop-color="#659154"/>
<stop offset="0.54" stop-color="#4D7943"/>
<stop offset="0.65" stop-color="#45713D"/>
</radialGradient>
<radialGradient id="paint25_radial_7928_155" cx="0" cy="0" r="1" gradientUnits="userSpaceOnUse" gradientTransform="translate(14.7507 23.8162) scale(2.43456)">
<stop stop-color="#BFE0A4"/>
<stop offset="0.21" stop-color="#8BB078"/>
<stop offset="0.38" stop-color="#658D57"/>
<stop offset="0.52" stop-color="#4D7844"/>
<stop offset="0.6" stop-color="#45713D"/>
</radialGradient>
<radialGradient id="paint26_radial_7928_155" cx="0" cy="0" r="1" gradientUnits="userSpaceOnUse" gradientTransform="translate(14.2362 12.7653) scale(14.4864 14.4864)">
<stop stop-color="#BFE0A4"/>
<stop offset="0.21" stop-color="#8BB078"/>
<stop offset="0.38" stop-color="#658D57"/>
<stop offset="0.52" stop-color="#4D7844"/>
<stop offset="0.6" stop-color="#45713D"/>
</radialGradient>
<linearGradient id="paint27_linear_7928_155" x1="20.2668" y1="20.5961" x2="17.5711" y2="15.5542" gradientUnits="userSpaceOnUse">
<stop stop-color="#9FCB7E"/>
<stop offset="0.1" stop-color="#8AB66F"/>
<stop offset="0.32" stop-color="#659154"/>
<stop offset="0.49" stop-color="#4D7943"/>
<stop offset="0.6" stop-color="#45713D"/>
</linearGradient>
<linearGradient id="paint28_linear_7928_155" x1="25.9673" y1="21.007" x2="27.3593" y2="15.1817" gradientUnits="userSpaceOnUse">
<stop stop-color="#9FCB7E"/>
<stop offset="0.1" stop-color="#8AB66F"/>
<stop offset="0.32" stop-color="#659154"/>
<stop offset="0.49" stop-color="#4D7943"/>
<stop offset="0.6" stop-color="#45713D"/>
</linearGradient>
<radialGradient id="paint29_radial_7928_155" cx="0" cy="0" r="1" gradientUnits="userSpaceOnUse" gradientTransform="translate(27.152 16.493) scale(14.2733 14.2733)">
<stop stop-color="#9FCB7E"/>
<stop offset="0.1" stop-color="#8AB66F"/>
<stop offset="0.32" stop-color="#659154"/>
<stop offset="0.49" stop-color="#4D7943"/>
<stop offset="0.6" stop-color="#45713D"/>
</radialGradient>
<radialGradient id="paint30_radial_7928_155" cx="0" cy="0" r="1" gradientUnits="userSpaceOnUse" gradientTransform="translate(27.129 13.0802) scale(19.8701 19.8701)">
<stop stop-color="#BFE0A4"/>
<stop offset="0.21" stop-color="#8BB078"/>
<stop offset="0.38" stop-color="#658D57"/>
<stop offset="0.52" stop-color="#4D7844"/>
<stop offset="0.6" stop-color="#45713D"/>
</radialGradient>
<radialGradient id="paint31_radial_7928_155" cx="0" cy="0" r="1" gradientUnits="userSpaceOnUse" gradientTransform="translate(16.1888 16.493) scale(14.2752 14.2752)">
<stop stop-color="#9FCB7E"/>
<stop offset="0.1" stop-color="#8AB66F"/>
<stop offset="0.32" stop-color="#659154"/>
<stop offset="0.49" stop-color="#4D7943"/>
<stop offset="0.6" stop-color="#45713D"/>
</radialGradient>
<radialGradient id="paint32_radial_7928_155" cx="0" cy="0" r="1" gradientUnits="userSpaceOnUse" gradientTransform="translate(21.6762 18.6224) scale(6.4992)">
<stop stop-color="#9FCB7E"/>
<stop offset="0.11" stop-color="#8AB66F"/>
<stop offset="0.35" stop-color="#659154"/>
<stop offset="0.54" stop-color="#4D7943"/>
<stop offset="0.65" stop-color="#45713D"/>
</radialGradient>
<radialGradient id="paint33_radial_7928_155" cx="0" cy="0" r="1" gradientUnits="userSpaceOnUse" gradientTransform="translate(24.1798 18.6224) rotate(180) scale(6.4992)">
<stop stop-color="#9FCB7E"/>
<stop offset="0.11" stop-color="#8AB66F"/>
<stop offset="0.35" stop-color="#659154"/>
<stop offset="0.54" stop-color="#4D7943"/>
<stop offset="0.65" stop-color="#45713D"/>
</radialGradient>
<radialGradient id="paint34_radial_7928_155" cx="0" cy="0" r="1" gradientUnits="userSpaceOnUse" gradientTransform="translate(22.4231 11.6989) scale(5.50272 5.50272)">
<stop stop-color="#9FCB7E"/>
<stop offset="0.11" stop-color="#8AB66F"/>
<stop offset="0.35" stop-color="#659154"/>
<stop offset="0.54" stop-color="#4D7943"/>
<stop offset="0.65" stop-color="#45713D"/>
</radialGradient>
<radialGradient id="paint35_radial_7928_155" cx="0" cy="0" r="1" gradientUnits="userSpaceOnUse" gradientTransform="translate(14.7507 23.8162) scale(2.43456)">
<stop stop-color="#BFE0A4"/>
<stop offset="0.21" stop-color="#8BB078"/>
<stop offset="0.38" stop-color="#658D57"/>
<stop offset="0.52" stop-color="#4D7844"/>
<stop offset="0.6" stop-color="#45713D"/>
</radialGradient>
<radialGradient id="paint36_radial_7928_155" cx="0" cy="0" r="1" gradientUnits="userSpaceOnUse" gradientTransform="translate(18.1184 13.9634) scale(15.9264 15.9264)">
<stop stop-color="#BFE0A4"/>
<stop offset="0.21" stop-color="#8BB078"/>
<stop offset="0.38" stop-color="#658D57"/>
<stop offset="0.52" stop-color="#4D7844"/>
<stop offset="0.6" stop-color="#45713D"/>
</radialGradient>
<linearGradient id="paint37_linear_7928_155" x1="20.2668" y1="20.5961" x2="17.5711" y2="15.5542" gradientUnits="userSpaceOnUse">
<stop stop-color="#9FCB7E"/>
<stop offset="0.1" stop-color="#8AB66F"/>
<stop offset="0.32" stop-color="#659154"/>
<stop offset="0.49" stop-color="#4D7943"/>
<stop offset="0.6" stop-color="#45713D"/>
</linearGradient>
<linearGradient id="paint38_linear_7928_155" x1="25.9673" y1="21.007" x2="27.3593" y2="15.1817" gradientUnits="userSpaceOnUse">
<stop stop-color="#9FCB7E"/>
<stop offset="0.1" stop-color="#8AB66F"/>
<stop offset="0.32" stop-color="#659154"/>
<stop offset="0.49" stop-color="#4D7943"/>
<stop offset="0.6" stop-color="#45713D"/>
</linearGradient>
<clipPath id="clip0_7928_155">
<rect width="32.7264" height="31.4112" fill="white" transform="translate(6.63684 8.54443)"/>
</clipPath>
</defs>
</svg>
