<svg width="46" height="49" viewBox="0 0 46 49" fill="none" xmlns="http://www.w3.org/2000/svg">
<rect y="0.25" width="46" height="48" rx="5" fill="white"/>
<path d="M23.0891 39.2424C14.8075 39.2424 8.0983 32.5294 8.0983 24.2516C8.0983 15.9738 14.8075 9.26074 23.0891 9.26074C31.3708 9.26074 38.08 15.9738 38.08 24.2516C38.08 32.5294 31.3669 39.2424 23.0891 39.2424Z" fill="#FF0000"/>
<path d="M11.9616 30.7994C11.9616 22.7003 18.5271 16.1309 26.6263 16.1309C30.8544 16.1309 34.6633 17.9246 37.3384 20.7861C35.7854 14.3565 29.9925 9.58862 23.0892 9.58862C14.9861 9.58474 8.42059 16.1503 8.42059 24.2494C8.42059 28.1243 9.92317 31.6458 12.377 34.2666C12.1052 33.1562 11.9654 31.9914 11.9654 30.7994H11.9616Z" fill="url(#paint0_linear_7929_1281)"/>
<path d="M23 8.01489C14.035 8.01489 6.76285 15.2832 6.76285 24.2482C6.76285 33.2132 14.035 40.4853 23 40.4853C31.965 40.4853 39.2372 33.2209 39.2372 24.2482C39.2372 15.2754 31.9689 8.01489 23 8.01489ZM23 9.78926C29.5811 9.78926 34.9663 14.2387 36.8882 20.2064C37.6336 22.5165 37.5443 26.8573 34.613 30.1847C33.0444 31.9591 30.9943 33.0579 29.3947 33.6946C25.0306 35.4379 20.4491 33.9975 19.0824 30.6273C17.7157 27.2611 20.1346 23.095 24.4871 21.3284C26.7739 20.3966 29.1423 20.3151 31.0681 20.9324L31.8641 16.9644L31.3865 16.8673C30.3071 16.646 28.2066 16.2655 25.6014 16.2655C15.0756 16.2655 9.95437 23.5454 9.95437 30.2546C9.95437 30.3361 9.95437 30.4177 9.95825 30.4992C9.04972 28.6084 8.54109 26.4885 8.54109 24.2482C8.54109 16.2616 15.0173 9.78926 23 9.78926Z" fill="url(#paint1_linear_7929_1281)"/>
<defs>
<linearGradient id="paint0_linear_7929_1281" x1="22.4369" y1="22.9293" x2="11.0724" y2="-0.207257" gradientUnits="userSpaceOnUse">
<stop stop-color="white" stop-opacity="0"/>
<stop offset="1" stop-color="white"/>
</linearGradient>
<linearGradient id="paint1_linear_7929_1281" x1="23" y1="46.2976" x2="23" y2="-5.11616" gradientUnits="userSpaceOnUse">
<stop stop-color="#CCCCCC"/>
<stop offset="1" stop-color="white"/>
</linearGradient>
</defs>
</svg>
