<svg width="121" height="121" viewBox="0 0 121 121" fill="none" xmlns="http://www.w3.org/2000/svg">
<path d="M100.493 67.4652C97.7336 67.4753 94.9638 67.3444 92.2241 67.5055C90.1693 67.6163 89.1823 66.8005 88.6787 64.8867C87.3995 60.1326 85.0325 55.9828 81.6784 52.3467C71.3342 41.1463 51.945 40.7233 41.0166 51.3395C36.8567 55.3785 34.117 60.052 32.5458 65.5717C32.3342 66.3271 31.2162 67.3242 30.4809 67.3645C26.5628 67.5358 22.6346 67.425 18.7064 67.4552C16.6618 67.4753 16.5006 66.1961 16.5006 64.6148C16.5207 55.167 16.5107 45.7192 16.5107 36.2714C16.5107 26.8235 16.5006 17.7081 16.5207 8.42147C16.5207 5.44007 17.256 4.97674 19.9252 6.25593C27.6204 9.96253 31.9616 15.7843 31.6393 24.6379C31.5184 27.8912 31.5788 31.1546 31.6594 34.4181C31.7299 37.4196 32.4652 37.752 35.1847 36.3822C38.9618 34.4684 42.6382 32.1719 46.6268 30.8726C60.6575 26.33 74.0235 28.0826 86.2412 36.4527C95.6588 42.909 101.41 52.0043 104.059 63.0737C104.945 66.8005 104.391 67.4552 100.493 67.4652Z" fill="#0FA4FA"/>
<path d="M104.835 78.716C102.568 92.6359 95.3566 103.313 83.1691 110.111C67.2247 118.995 51.2601 118.25 35.7487 108.57C35.0336 108.137 34.3588 107.654 33.6436 107.211C33.5228 107.13 33.3314 107.16 32.435 107.019C32.435 108.852 32.4551 110.474 32.435 112.106C32.3947 114.876 31.5687 115.581 29.1313 114.553C23.4001 112.146 19.0992 108.147 17.2661 102.114C16.42 99.3038 16.2589 96.2216 16.1581 93.2503C15.9869 88.2343 16.1581 83.2183 16.0876 78.2023C16.0675 76.4699 16.6618 75.8454 18.4244 75.9058C22.4332 76.0368 26.4419 76.0468 30.4507 76.0166C31.9213 76.0066 32.5961 76.4699 33.0192 78.0109C36.5948 90.8733 46.2642 99.0721 58.7639 100.029C72.2507 101.046 84.6296 92.3035 88.0441 79.1894C88.6786 76.762 89.7362 75.7749 92.3349 75.9663C95.6587 76.2181 99.0128 76.1073 102.357 76.0066C104.371 75.9461 105.207 76.4195 104.835 78.716Z" fill="white"/>
</svg>
