<svg width="120" height="120" viewBox="0 0 120 120" fill="none" xmlns="http://www.w3.org/2000/svg">
<path d="M73.6347 98.5957C76.2254 93.9247 78.3388 88.2649 80.384 84.6168C85.5312 84.6168 86.9287 84.6168 92.9281 84.6168C82.0202 66.2736 71.76 49.0216 60.2385 29.7238C53.9665 39.8159 48.6489 48.3737 42.445 58.3295C39.2408 53.5562 36.7524 49.8398 33.7528 45.3393C42.3086 31.0194 50.6941 16.9722 60.0681 1.25439C79.9068 34.3948 98.7229 65.8304 118.323 98.5957H73.6347ZM42.3768 118.712C51.819 102.721 60.0681 88.8105 68.4535 74.6269C65.4879 70.2287 62.9314 66.4441 59.7954 61.8072C53.6256 71.5925 48.2398 80.1503 42.07 89.9697C35.7298 79.6048 30.5486 71.1151 24.3106 60.9548C16.2661 74.4565 9.31228 86.0829 1.67676 98.9026H19.0953C21.0723 95.5954 22.0268 94.2316 24.7878 90.1743C30.8895 100.062 36.173 108.654 42.3768 118.746V118.712Z" fill="white"/>
</svg>
