<svg width="120" height="120" viewBox="0 0 120 120" fill="none" xmlns="http://www.w3.org/2000/svg">
<path d="M115.694 82.0845C115.24 86.0407 110.468 86.5944 107.31 86.3125C105.454 86.1515 100.975 84.9435 102.549 82.2657C103.305 80.9771 104.455 81.5812 105.515 82.0845C107.018 82.7892 108.753 83.222 110.387 82.7288C110.811 82.5979 111.235 82.3966 111.507 82.0442C111.78 81.6919 111.84 81.1583 111.568 80.806C111.416 80.6147 111.184 80.504 110.952 80.4033C109.641 79.8094 108.269 79.3463 106.866 79.0041C104.465 78.4202 102.205 76.9806 102.216 74.2324C102.216 71.8868 104.243 69.7023 106.786 69.3399C107.472 69.2493 108.178 69.2393 108.874 69.199C110.741 69.1285 112.486 69.4809 114.05 70.5681C114.988 71.2124 115.371 71.9271 114.736 73.0244C114.161 74.0109 113.586 74.172 112.526 73.5781C111.073 72.7626 109.409 72.964 107.795 73.0647C107.25 73.0949 106.574 73.1452 106.534 73.8801C106.503 74.5143 107.038 74.8767 107.573 75.0579C108.955 75.531 110.377 75.8833 111.77 76.3464C114.887 77.3934 116.027 79.0846 115.684 82.1046L115.694 82.0845Z" fill="#F8AF16"/>
<path d="M101.035 71.615C100.874 72.7022 100.117 72.9942 99.1183 73.1754C97.0502 73.5579 95.7386 75.0881 95.6478 77.2524C95.557 79.4772 95.6277 81.712 95.5671 83.9368C95.5369 85.0945 95.3149 86.1615 93.7108 86.1414C92.1471 86.1414 91.6325 85.3159 91.6426 83.9166C91.6628 81.8228 91.6426 79.7389 91.6426 77.6551C91.6426 75.4807 91.1079 72.5714 91.8948 70.4976C92.1672 69.7929 92.8129 69.3198 93.5796 69.3701C94.1144 69.4104 94.6087 69.6319 95.093 69.8533C95.5772 70.0748 96.0917 70.2761 96.6164 70.256C97.2822 70.2359 97.8774 69.8634 98.4928 69.6117C100.067 68.9675 101.277 69.954 101.035 71.6251V71.615Z" fill="#F8AF16"/>
<path d="M78.497 79.0745C79.8186 79.0544 81.1504 79.0745 82.472 79.0745H85.206C89.2314 79.0745 89.2112 79.0745 88.2932 75.1183C86.9009 69.1386 80.3937 67.9004 76.3482 70.2057C73.2913 71.9472 72.2521 74.7861 72.2824 78.2792C72.3026 81.7221 74.2901 84.7925 77.6092 85.9703C79.7077 86.7051 88.9691 86.6951 86.7698 82.5174C86.225 81.4905 85.3876 81.6818 84.4695 82.0442C83.1883 82.5476 82.0583 82.9804 80.6459 82.7489C79.3747 82.5375 78.1843 81.8731 77.3368 80.9067C77.1149 80.655 76.9131 80.3631 76.8627 80.0309C76.7113 78.9839 77.8312 79.1047 78.497 79.0946V79.0745ZM77.6294 73.9505C78.6383 72.6116 82.3812 72.662 83.4909 73.9807C84.0156 74.6049 84.4595 75.6417 83.4304 76.0847C83.0975 76.2256 82.7242 76.2357 82.361 76.2357C80.9284 76.2558 79.4958 76.2659 78.0632 76.286C77.8312 76.286 77.5991 76.286 77.3772 76.2055C76.2876 75.7827 77.2158 74.474 77.6193 73.9405L77.6294 73.9505Z" fill="#F8AF16"/>
<path d="M72.6456 40.6395C72.6456 45.5622 69.0439 49.2869 64.2417 49.297C59.268 49.3171 55.7975 45.6226 55.5856 40.5691C55.404 36.1699 58.9653 31.7103 64.161 32.3747C69.5685 32.3747 72.6254 35.3545 72.6355 40.6295L72.6456 40.6395Z" fill="#F8AF16"/>
<path d="M92.3892 34.8914C89.5543 39.3208 86.6689 43.73 83.8541 48.1795C78.5576 56.5551 73.3014 64.9609 68.0149 73.3465C65.5734 77.2122 63.1017 81.0677 60.6602 84.9233C60.1255 85.779 59.389 86.1716 58.4003 86.1817H55.4544V86.1615C54.4758 86.1615 53.4871 86.232 52.5186 86.1615C51.0759 86.0307 50.6522 85.2656 51.4089 84.0475C54.1429 79.6181 56.9375 75.229 59.7018 70.8097C63.2026 65.2226 66.6832 59.6255 70.1839 54.0485C73.4325 48.8842 76.6609 43.7099 79.9801 38.596C80.6157 37.6094 81.3118 36.5826 81.7658 35.586C82.9159 33.0592 84.7419 32.2942 87.3045 32.4854C88.6261 32.576 89.978 32.4452 91.2895 32.576C92.7927 32.717 93.1862 33.623 92.3791 34.8914H92.3892Z" fill="#F8AF16"/>
<path d="M28.1241 50.5352C27.9324 51.2801 27.9425 51.9445 28.4268 52.2969C28.79 52.5687 29.2843 52.5888 29.7383 52.5888C34.4901 52.6391 39.5042 52.5687 43.6708 54.8538C56.3019 61.7697 49.3709 77.4236 39.6353 83.071C33.6729 86.534 26.6007 87.6716 19.7001 87.6917C16.8147 87.6917 13.8789 87.5105 11.1751 86.5038C8.47132 85.4971 5.99959 83.5844 4.86965 80.9369C3.06377 76.6887 5.43463 71.3332 9.59117 69.2997C15.2308 66.5514 22.2929 69.4809 24.6334 75.1485C25.1076 76.2961 24.9361 77.484 25.0572 78.6618C25.158 79.7087 25.6827 80.2121 26.7521 79.7591C31.5845 77.7457 34.5809 71.9271 34.2076 68.1621C33.6729 62.716 28.3663 60.3906 23.4631 60.0684C19.6799 59.8168 15.8663 60.4006 12.1133 59.857C11.7098 59.7966 11.2558 59.6859 11.0641 59.3335C10.9229 59.0517 10.9834 58.7195 11.0641 58.4175C12.4362 52.7398 15.0593 47.4044 16.6835 41.7871C17.3595 39.4617 18.2977 37.2067 19.1452 34.9317C19.7707 33.2706 20.8704 32.425 22.8074 32.4653C27.5592 32.566 32.321 32.4955 37.0829 32.4955C41.8448 32.4955 46.6066 32.4653 51.3685 32.4955C53.8907 32.4955 54.4153 33.0492 53.5376 35.3243C52.5993 37.7604 51.6913 40.2469 50.4403 42.5723C49.6736 44.0018 48.6244 44.5253 47.0606 44.5052C42.2988 44.4548 37.547 44.5253 32.7851 44.475C31.0398 44.4448 29.8392 44.777 29.5365 46.8205C29.4155 47.6259 28.4671 49.2164 28.1342 50.515L28.1241 50.5352Z" fill="#F8AF16"/>
</svg>
